<svg id="visual" viewBox="0 0 900 600" width="900" height="600" xmlns="http://www.w3.org/2000/svg" xmlns:xlink="http://www.w3.org/1999/xlink" version="1.1"><path d="M0 509L7.2 515.8C14.3 522.7 28.7 536.3 43 537.3C57.3 538.3 71.7 526.7 86 530.3C100.3 534 114.7 553 128.8 553.7C143 554.3 157 536.7 171.2 538.7C185.3 540.7 199.7 562.3 214 562C228.3 561.7 242.7 539.3 257 538C271.3 536.7 285.7 556.3 300 564.8C314.3 573.3 328.7 570.7 343 562.2C357.3 553.7 371.7 539.3 386 543.2C400.3 547 414.7 569 428.8 577.8C443 586.7 457 582.3 471.2 569.7C485.3 557 499.7 536 514 531.5C528.3 527 542.7 539 557 535.2C571.3 531.3 585.7 511.7 600 502.5C614.3 493.3 628.7 494.7 643 507.2C657.3 519.7 671.7 543.3 686 548C700.3 552.7 714.7 538.3 728.8 530.2C743 522 757 520 771.2 530.3C785.3 540.7 799.7 563.3 814 561C828.3 558.7 842.7 531.3 857 522.7C871.3 514 885.7 524 892.8 529L900 534L900 601L892.8 601C885.7 601 871.3 601 857 601C842.7 601 828.3 601 814 601C799.7 601 785.3 601 771.2 601C757 601 743 601 728.8 601C714.7 601 700.3 601 686 601C671.7 601 657.3 601 643 601C628.7 601 614.3 601 600 601C585.7 601 571.3 601 557 601C542.7 601 528.3 601 514 601C499.7 601 485.3 601 471.2 601C457 601 443 601 428.8 601C414.7 601 400.3 601 386 601C371.7 601 357.3 601 343 601C328.7 601 314.3 601 300 601C285.7 601 271.3 601 257 601C242.7 601 228.3 601 214 601C199.7 601 185.3 601 171.2 601C157 601 143 601 128.8 601C114.7 601 100.3 601 86 601C71.7 601 57.3 601 43 601C28.7 601 14.3 601 7.2 601L0 601Z" fill="#f9a932"></path><path d="M0 507L7.2 519.5C14.3 532 28.7 557 43 559.3C57.3 561.7 71.7 541.3 86 528.3C100.3 515.3 114.7 509.7 128.8 505.7C143 501.7 157 499.3 171.2 513.2C185.3 527 199.7 557 214 568.7C228.3 580.3 242.7 573.7 257 562.3C271.3 551 285.7 535 300 532C314.3 529 328.7 539 343 538C357.3 537 371.7 525 386 523C400.3 521 414.7 529 428.8 535.7C443 542.3 457 547.7 471.2 541.8C485.3 536 499.7 519 514 518C528.3 517 542.7 532 557 542.2C571.3 552.3 585.7 557.7 600 551C614.3 544.3 628.7 525.7 643 521.2C657.3 516.7 671.7 526.3 686 535.3C700.3 544.3 714.7 552.7 728.8 560.2C743 567.7 757 574.3 771.2 568.5C785.3 562.7 799.7 544.3 814 547C828.3 549.7 842.7 573.3 857 576.5C871.3 579.7 885.7 562.3 892.8 553.7L900 545L900 601L892.8 601C885.7 601 871.3 601 857 601C842.7 601 828.3 601 814 601C799.7 601 785.3 601 771.2 601C757 601 743 601 728.8 601C714.7 601 700.3 601 686 601C671.7 601 657.3 601 643 601C628.7 601 614.3 601 600 601C585.7 601 571.3 601 557 601C542.7 601 528.3 601 514 601C499.7 601 485.3 601 471.2 601C457 601 443 601 428.8 601C414.7 601 400.3 601 386 601C371.7 601 357.3 601 343 601C328.7 601 314.3 601 300 601C285.7 601 271.3 601 257 601C242.7 601 228.3 601 214 601C199.7 601 185.3 601 171.2 601C157 601 143 601 128.8 601C114.7 601 100.3 601 86 601C71.7 601 57.3 601 43 601C28.7 601 14.3 601 7.2 601L0 601Z" fill="#f9ad3c"></path><path d="M0 566L7.2 555C14.3 544 28.7 522 43 511.8C57.3 501.7 71.7 503.3 86 507.7C100.3 512 114.7 519 128.8 529.5C143 540 157 554 171.2 558.7C185.3 563.3 199.7 558.7 214 560.7C228.3 562.7 242.7 571.3 257 567.2C271.3 563 285.7 546 300 547.3C314.3 548.7 328.7 568.3 343 568.7C357.3 569 371.7 550 386 547.2C400.3 544.3 414.7 557.7 428.8 552.8C443 548 457 525 471.2 528.5C485.3 532 499.7 562 514 574.5C528.3 587 542.7 582 557 569.2C571.3 556.3 585.7 535.7 600 535.5C614.3 535.3 628.7 555.7 643 568.7C657.3 581.7 671.7 587.3 686 589C700.3 590.7 714.7 588.3 728.8 575.5C743 562.7 757 539.3 771.2 531C785.3 522.7 799.7 529.3 814 535.7C828.3 542 842.7 548 857 551.8C871.3 555.7 885.7 557.3 892.8 558.2L900 559L900 601L892.8 601C885.7 601 871.3 601 857 601C842.7 601 828.3 601 814 601C799.7 601 785.3 601 771.2 601C757 601 743 601 728.8 601C714.7 601 700.3 601 686 601C671.7 601 657.3 601 643 601C628.7 601 614.3 601 600 601C585.7 601 571.3 601 557 601C542.7 601 528.3 601 514 601C499.7 601 485.3 601 471.2 601C457 601 443 601 428.8 601C414.7 601 400.3 601 386 601C371.7 601 357.3 601 343 601C328.7 601 314.3 601 300 601C285.7 601 271.3 601 257 601C242.7 601 228.3 601 214 601C199.7 601 185.3 601 171.2 601C157 601 143 601 128.8 601C114.7 601 100.3 601 86 601C71.7 601 57.3 601 43 601C28.7 601 14.3 601 7.2 601L0 601Z" fill="#f9b246"></path><path d="M0 511L7.2 515.7C14.3 520.3 28.7 529.7 43 540.3C57.3 551 71.7 563 86 563.2C100.3 563.3 114.7 551.7 128.8 553C143 554.3 157 568.7 171.2 564.5C185.3 560.3 199.7 537.7 214 533.3C228.3 529 242.7 543 257 551.5C271.3 560 285.7 563 300 556C314.3 549 328.7 532 343 525.5C357.3 519 371.7 523 386 532.3C400.3 541.7 414.7 556.3 428.8 567.2C443 578 457 585 471.2 576.8C485.3 568.7 499.7 545.3 514 539.8C528.3 534.3 542.7 546.7 557 548.5C571.3 550.3 585.7 541.7 600 541.2C614.3 540.7 628.7 548.3 643 544.5C657.3 540.7 671.7 525.3 686 518C700.3 510.7 714.7 511.3 728.8 518C743 524.7 757 537.3 771.2 550C785.3 562.7 799.7 575.3 814 577.5C828.3 579.7 842.7 571.3 857 566.7C871.3 562 885.7 561 892.8 560.5L900 560L900 601L892.8 601C885.7 601 871.3 601 857 601C842.7 601 828.3 601 814 601C799.7 601 785.3 601 771.2 601C757 601 743 601 728.8 601C714.7 601 700.3 601 686 601C671.7 601 657.3 601 643 601C628.7 601 614.3 601 600 601C585.7 601 571.3 601 557 601C542.7 601 528.3 601 514 601C499.7 601 485.3 601 471.2 601C457 601 443 601 428.8 601C414.7 601 400.3 601 386 601C371.7 601 357.3 601 343 601C328.7 601 314.3 601 300 601C285.7 601 271.3 601 257 601C242.7 601 228.3 601 214 601C199.7 601 185.3 601 171.2 601C157 601 143 601 128.8 601C114.7 601 100.3 601 86 601C71.7 601 57.3 601 43 601C28.7 601 14.3 601 7.2 601L0 601Z" fill="#f8b64f"></path><path d="M0 531L7.2 541.5C14.3 552 28.7 573 43 578C57.3 583 71.7 572 86 562.8C100.3 553.7 114.7 546.3 128.8 550.7C143 555 157 571 171.2 570.8C185.3 570.7 199.7 554.3 214 553.5C228.3 552.7 242.7 567.3 257 568.7C271.3 570 285.7 558 300 554C314.3 550 328.7 554 343 553C357.3 552 371.7 546 386 546.3C400.3 546.7 414.7 553.3 428.8 563C443 572.7 457 585.3 471.2 583.2C485.3 581 499.7 564 514 560.2C528.3 556.3 542.7 565.7 557 571.5C571.3 577.3 585.7 579.7 600 570.3C614.3 561 628.7 540 643 539.2C657.3 538.3 671.7 557.7 686 570.8C700.3 584 714.7 591 728.8 584.7C743 578.3 757 558.7 771.2 549C785.3 539.3 799.7 539.7 814 544C828.3 548.3 842.7 556.7 857 555.2C871.3 553.7 885.7 542.3 892.8 536.7L900 531L900 601L892.8 601C885.7 601 871.3 601 857 601C842.7 601 828.3 601 814 601C799.7 601 785.3 601 771.2 601C757 601 743 601 728.8 601C714.7 601 700.3 601 686 601C671.7 601 657.3 601 643 601C628.7 601 614.3 601 600 601C585.7 601 571.3 601 557 601C542.7 601 528.3 601 514 601C499.7 601 485.3 601 471.2 601C457 601 443 601 428.8 601C414.7 601 400.3 601 386 601C371.7 601 357.3 601 343 601C328.7 601 314.3 601 300 601C285.7 601 271.3 601 257 601C242.7 601 228.3 601 214 601C199.7 601 185.3 601 171.2 601C157 601 143 601 128.8 601C114.7 601 100.3 601 86 601C71.7 601 57.3 601 43 601C28.7 601 14.3 601 7.2 601L0 601Z" fill="#f8ba58"></path><path d="M0 543L7.2 549.8C14.3 556.7 28.7 570.3 43 577.2C57.3 584 71.7 584 86 586.5C100.3 589 114.7 594 128.8 592.7C143 591.3 157 583.7 171.2 576.2C185.3 568.7 199.7 561.3 214 562C228.3 562.7 242.7 571.3 257 574.5C271.3 577.7 285.7 575.3 300 571.8C314.3 568.3 328.7 563.7 343 558.8C357.3 554 371.7 549 386 553.2C400.3 557.3 414.7 570.7 428.8 579.7C443 588.7 457 593.3 471.2 595.2C485.3 597 499.7 596 514 595C528.3 594 542.7 593 557 584C571.3 575 585.7 558 600 548C614.3 538 628.7 535 643 540.5C657.3 546 671.7 560 686 569.2C700.3 578.3 714.7 582.7 728.8 585.7C743 588.7 757 590.3 771.2 585.7C785.3 581 799.7 570 814 561.2C828.3 552.3 842.7 545.7 857 545.7C871.3 545.7 885.7 552.3 892.8 555.7L900 559L900 601L892.8 601C885.7 601 871.3 601 857 601C842.7 601 828.3 601 814 601C799.7 601 785.3 601 771.2 601C757 601 743 601 728.8 601C714.7 601 700.3 601 686 601C671.7 601 657.3 601 643 601C628.7 601 614.3 601 600 601C585.7 601 571.3 601 557 601C542.7 601 528.3 601 514 601C499.7 601 485.3 601 471.2 601C457 601 443 601 428.8 601C414.7 601 400.3 601 386 601C371.7 601 357.3 601 343 601C328.7 601 314.3 601 300 601C285.7 601 271.3 601 257 601C242.7 601 228.3 601 214 601C199.7 601 185.3 601 171.2 601C157 601 143 601 128.8 601C114.7 601 100.3 601 86 601C71.7 601 57.3 601 43 601C28.7 601 14.3 601 7.2 601L0 601Z" fill="#f8be61"></path><path d="M0 547L7.2 553.3C14.3 559.7 28.7 572.3 43 574.8C57.3 577.3 71.7 569.7 86 567.3C100.3 565 114.7 568 128.8 568.3C143 568.7 157 566.3 171.2 566C185.3 565.7 199.7 567.3 214 570C228.3 572.7 242.7 576.3 257 581C271.3 585.7 285.7 591.3 300 589.8C314.3 588.3 328.7 579.7 343 572.5C357.3 565.3 371.7 559.7 386 559.8C400.3 560 414.7 566 428.8 565.2C443 564.3 457 556.7 471.2 554.3C485.3 552 499.7 555 514 558.3C528.3 561.7 542.7 565.3 557 570.8C571.3 576.3 585.7 583.7 600 588.3C614.3 593 628.7 595 643 594.5C657.3 594 671.7 591 686 590C700.3 589 714.7 590 728.8 590.3C743 590.7 757 590.3 771.2 585C785.3 579.7 799.7 569.3 814 562C828.3 554.7 842.7 550.3 857 551.5C871.3 552.7 885.7 559.3 892.8 562.7L900 566L900 601L892.8 601C885.7 601 871.3 601 857 601C842.7 601 828.3 601 814 601C799.7 601 785.3 601 771.2 601C757 601 743 601 728.8 601C714.7 601 700.3 601 686 601C671.7 601 657.3 601 643 601C628.7 601 614.3 601 600 601C585.7 601 571.3 601 557 601C542.7 601 528.3 601 514 601C499.7 601 485.3 601 471.2 601C457 601 443 601 428.8 601C414.7 601 400.3 601 386 601C371.7 601 357.3 601 343 601C328.7 601 314.3 601 300 601C285.7 601 271.3 601 257 601C242.7 601 228.3 601 214 601C199.7 601 185.3 601 171.2 601C157 601 143 601 128.8 601C114.7 601 100.3 601 86 601C71.7 601 57.3 601 43 601C28.7 601 14.3 601 7.2 601L0 601Z" fill="#f8c26a"></path><path d="M0 591L7.2 584.2C14.3 577.3 28.7 563.7 43 562.8C57.3 562 71.7 574 86 582.2C100.3 590.3 114.7 594.7 128.8 591.8C143 589 157 579 171.2 572C185.3 565 199.7 561 214 558.2C228.3 555.3 242.7 553.7 257 560.2C271.3 566.7 285.7 581.3 300 585.5C314.3 589.7 328.7 583.3 343 580C357.3 576.7 371.7 576.3 386 579.7C400.3 583 414.7 590 428.8 590.7C443 591.3 457 585.7 471.2 585.2C485.3 584.7 499.7 589.3 514 588.3C528.3 587.3 542.7 580.7 557 576.5C571.3 572.3 585.7 570.7 600 571.3C614.3 572 628.7 575 643 576.7C657.3 578.3 671.7 578.7 686 579.3C700.3 580 714.7 581 728.8 580.7C743 580.3 757 578.7 771.2 574.8C785.3 571 799.7 565 814 568.2C828.3 571.3 842.7 583.7 857 583C871.3 582.3 885.7 568.7 892.8 561.8L900 555L900 601L892.8 601C885.7 601 871.3 601 857 601C842.7 601 828.3 601 814 601C799.7 601 785.3 601 771.2 601C757 601 743 601 728.8 601C714.7 601 700.3 601 686 601C671.7 601 657.3 601 643 601C628.7 601 614.3 601 600 601C585.7 601 571.3 601 557 601C542.7 601 528.3 601 514 601C499.7 601 485.3 601 471.2 601C457 601 443 601 428.8 601C414.7 601 400.3 601 386 601C371.7 601 357.3 601 343 601C328.7 601 314.3 601 300 601C285.7 601 271.3 601 257 601C242.7 601 228.3 601 214 601C199.7 601 185.3 601 171.2 601C157 601 143 601 128.8 601C114.7 601 100.3 601 86 601C71.7 601 57.3 601 43 601C28.7 601 14.3 601 7.2 601L0 601Z" fill="#f8c672"></path><path d="M0 576L7.2 578.8C14.3 581.7 28.7 587.3 43 584.8C57.3 582.3 71.7 571.7 86 572.2C100.3 572.7 114.7 584.3 128.8 589.5C143 594.7 157 593.3 171.2 592C185.3 590.7 199.7 589.3 214 590.5C228.3 591.7 242.7 595.3 257 592.3C271.3 589.3 285.7 579.7 300 576.8C314.3 574 328.7 578 343 577.8C357.3 577.7 371.7 573.3 386 571.2C400.3 569 414.7 569 428.8 573.3C443 577.7 457 586.3 471.2 584.7C485.3 583 499.7 571 514 571.3C528.3 571.7 542.7 584.3 557 586.5C571.3 588.7 585.7 580.3 600 574.8C614.3 569.3 628.7 566.7 643 566C657.3 565.3 671.7 566.7 686 571.2C700.3 575.7 714.7 583.3 728.8 588C743 592.7 757 594.3 771.2 591.5C785.3 588.7 799.7 581.3 814 579.7C828.3 578 842.7 582 857 584.8C871.3 587.7 885.7 589.3 892.8 590.2L900 591L900 601L892.8 601C885.7 601 871.3 601 857 601C842.7 601 828.3 601 814 601C799.7 601 785.3 601 771.2 601C757 601 743 601 728.8 601C714.7 601 700.3 601 686 601C671.7 601 657.3 601 643 601C628.7 601 614.3 601 600 601C585.7 601 571.3 601 557 601C542.7 601 528.3 601 514 601C499.7 601 485.3 601 471.2 601C457 601 443 601 428.8 601C414.7 601 400.3 601 386 601C371.7 601 357.3 601 343 601C328.7 601 314.3 601 300 601C285.7 601 271.3 601 257 601C242.7 601 228.3 601 214 601C199.7 601 185.3 601 171.2 601C157 601 143 601 128.8 601C114.7 601 100.3 601 86 601C71.7 601 57.3 601 43 601C28.7 601 14.3 601 7.2 601L0 601Z" fill="#f8ca7b"></path><path d="M0 578L7.2 579.3C14.3 580.7 28.7 583.3 43 586.3C57.3 589.3 71.7 592.7 86 594.5C100.3 596.3 114.7 596.7 128.8 595.3C143 594 157 591 171.2 586.5C185.3 582 199.7 576 214 576.5C228.3 577 242.7 584 257 587C271.3 590 285.7 589 300 588.8C314.3 588.7 328.7 589.3 343 589.3C357.3 589.3 371.7 588.7 386 587.7C400.3 586.7 414.7 585.3 428.8 584C443 582.7 457 581.3 471.2 580.7C485.3 580 499.7 580 514 581.7C528.3 583.3 542.7 586.7 557 587.7C571.3 588.7 585.7 587.3 600 586.8C614.3 586.3 628.7 586.7 643 585.8C657.3 585 671.7 583 686 585C700.3 587 714.7 593 728.8 593.3C743 593.7 757 588.3 771.2 586.7C785.3 585 799.7 587 814 587.5C828.3 588 842.7 587 857 587C871.3 587 885.7 588 892.8 588.5L900 589L900 601L892.8 601C885.7 601 871.3 601 857 601C842.7 601 828.3 601 814 601C799.7 601 785.3 601 771.2 601C757 601 743 601 728.8 601C714.7 601 700.3 601 686 601C671.7 601 657.3 601 643 601C628.7 601 614.3 601 600 601C585.7 601 571.3 601 557 601C542.7 601 528.3 601 514 601C499.7 601 485.3 601 471.2 601C457 601 443 601 428.8 601C414.7 601 400.3 601 386 601C371.7 601 357.3 601 343 601C328.7 601 314.3 601 300 601C285.7 601 271.3 601 257 601C242.7 601 228.3 601 214 601C199.7 601 185.3 601 171.2 601C157 601 143 601 128.8 601C114.7 601 100.3 601 86 601C71.7 601 57.3 601 43 601C28.7 601 14.3 601 7.2 601L0 601Z" fill="#f8cd83"></path><path d="M0 591L7.2 589.5C14.3 588 28.7 585 43 583.8C57.3 582.7 71.7 583.3 86 583.8C100.3 584.3 114.7 584.7 128.8 584.5C143 584.3 157 583.7 171.2 583.3C185.3 583 199.7 583 214 585.5C228.3 588 242.7 593 257 593C271.3 593 285.7 588 300 587.2C314.3 586.3 328.7 589.7 343 592C357.3 594.3 371.7 595.7 386 594.7C400.3 593.7 414.7 590.3 428.8 589.8C443 589.3 457 591.7 471.2 592.3C485.3 593 499.7 592 514 591.5C528.3 591 542.7 591 557 591.2C571.3 591.3 585.7 591.7 600 591C614.3 590.3 628.7 588.7 643 587.5C657.3 586.3 671.7 585.7 686 585.8C700.3 586 714.7 587 728.8 587.7C743 588.3 757 588.7 771.2 589.8C785.3 591 799.7 593 814 594.5C828.3 596 842.7 597 857 595.2C871.3 593.3 885.7 588.7 892.8 586.3L900 584L900 601L892.8 601C885.7 601 871.3 601 857 601C842.7 601 828.3 601 814 601C799.7 601 785.3 601 771.2 601C757 601 743 601 728.8 601C714.7 601 700.3 601 686 601C671.7 601 657.3 601 643 601C628.7 601 614.3 601 600 601C585.7 601 571.3 601 557 601C542.7 601 528.3 601 514 601C499.7 601 485.3 601 471.2 601C457 601 443 601 428.8 601C414.7 601 400.3 601 386 601C371.7 601 357.3 601 343 601C328.7 601 314.3 601 300 601C285.7 601 271.3 601 257 601C242.7 601 228.3 601 214 601C199.7 601 185.3 601 171.2 601C157 601 143 601 128.8 601C114.7 601 100.3 601 86 601C71.7 601 57.3 601 43 601C28.7 601 14.3 601 7.2 601L0 601Z" fill="#f8d18c"></path></svg>