<svg xmlns="http://www.w3.org/2000/svg" width="1536" height="1024" viewBox="0 0 1536 1024"><path fill="#251000" fill-opacity=".463" d="m877.871 958.28.568 1.526c-6.214 3.074-30.055 35.437-34.039 43.174-2.735 5.31-7.696 15.09-11.18 20.25.069-2.71 2.868-7.2 4.203-9.88 10.168-20.384 24.437-38.894 40.448-55.07"/><path fill="#251000" fill-opacity=".282" d="m781.594 952.408.839.443c-14.001 22.895-23.845 37.856-30.451 64.469l-.722.4c-.026-4.09 1.029-4.52 1.957-8.14 4.625-18.042 17.087-42.123 28.377-57.172"/><path fill="#462401" fill-opacity=".278" d="M877.871 958.28c5.938-5.955 11.814-12.038 18.679-16.926l.604.239.803-.829c-1.95 2.304-17.385 17.862-19.518 19.042z"/><path fill="#251000" fill-opacity=".396" d="M855.802 888.262c-3.983 1.568-19.12 11.286-23.586 14.041l-.151-.208c7.637-6.047 15.361-10.7 23.571-15.896z"/><path fill="#251000" fill-opacity=".153" d="M781.594 952.408c3.01-2.456 6.194-10.124 12.292-14.699l1.243.156c-1.914 2.944-9.997 13.127-12.696 14.986z"/><path fill="#653904" fill-opacity=".212" d="m1279.87 358.112 1.31-.112a1204 1204 0 0 1 12.25 18.19c-4.16-1.968-10.97-13.669-13.56-18.078"/><path fill="#462401" fill-opacity=".145" d="m1230.52 259.322.86.205c1.25 3.322 3.79 8.785 3.78 11.94l-1.24.701-1.2-.619c-1.66-3.108-1.86-8.562-2.2-12.227"/><path fill="#251000" fill-opacity=".208" d="M811.84 918.299c2.763-3.35 8.764-9.246 12.608-11.166l.907.138c-1.495 2.9-8.921 8.513-11.988 11.229z"/><path fill="#251000" fill-opacity=".286" d="M855.636 886.199c2.539-1.409 13.532-7.201 15.737-7.239-.697 2.637-12.356 7.244-15.571 9.302z"/><path fill="#251000" fill-opacity=".271" d="m844.689 940.624.203.643c-.533 2.542-8.823 10.859-11.055 13.124l-.279-1.904c3.93-4.514 6.793-7.695 11.131-11.863"/><path fill="#251000" fill-opacity=".376" d="m804.668 924.616.772.757c-2.235 2.551-9.337 10.143-10.311 12.492l-1.243-.156c2.445-4.359 7.311-9.239 10.782-13.093"/><path fill="#251000" fill-opacity=".412" d="m822.096 967.599.388.384c.082 1.745-3.061 5.917-4.257 7.783l-.661-.401c.586-2.615 2.923-5.453 4.53-7.766"/><path fill="#251000" fill-opacity=".561" d="M809.685 987.768c.932-1.547 3.807-6.719 4.945-7.497l-.514.919.665-.456-4.002 7.403z"/><path fill="#251000" fill-opacity=".098" d="M809.796 920.509c.56-1.167 1.003-1.321 2.044-2.21l1.527.201c-2.37 3.005-2.788 3.503-5.91 5.743z"/><path fill="#251000" fill-opacity=".392" d="M806.431 993.732c.809 2.603-1.784 7.378-2.961 10.168-.41-2.9 1.783-7.286 2.961-10.168"/><defs><linearGradient id="a" x1="805.229" x2="807.013" y1="922.31" y2="923.456" gradientUnits="userSpaceOnUse"><stop offset="0" stop-color="#210d01" stop-opacity="0"/><stop offset="1" stop-color="#240f02" stop-opacity=".416"/></linearGradient></defs><path fill="url(#a)" d="M804.668 924.616c1.32-2.429 2.433-2.46 5.128-4.107l-2.339 3.734-2.017 1.13z"/><path fill="#251000" fill-opacity=".349" d="m809.685 987.768 1.094.369c-.896 2.074-.907 2.351-2.532 3.825-.376-1.796.29-2.05 1.438-4.194"/><defs><linearGradient id="b" x1="279.608" x2="293.412" y1="531.927" y2="519.256" gradientUnits="userSpaceOnUse"><stop offset="0" stop-color="#7f5417" stop-opacity="0"/><stop offset="1" stop-color="#896121" stop-opacity=".031"/></linearGradient></defs><path fill="url(#b)" d="M270.359 502.32c4.238.785 7.742 1.427 11.69 3.258-.961 5.32 5.393 4.976 5.804 6.242 3.355 10.352-1.925 10.527 10.202 14.214 2.304.7 7.674 15.97 14.835 9.75l2.399 6.618c-.663 12.369 6.173 19.31 2.008 33.242-3.587-5.129-1.217-8.486-1.895-14.379-.498-4.325-5.402-8.824-3.408-12.946 1.139-2.355.722-3.634-.33-5.561-28.569 7.703-50.414-32.593-41.305-40.438"/><path fill="#9c691e" fill-opacity=".114" d="M282.049 505.578c2.398 1.187 6.257 3.393 8.767 3.49 3.448 4.616 4.233 5.822 8.695 9.26l-.233 1.223c-2.548.163-3.796-.161-5.755 1.08l.326 1.158c4.11 1.865 4.909 1.041 7.629 4.864 1.973 2.772 4.728 6.638 7.786 8.145l3.396.368.23.618c-7.161 6.22-12.531-9.05-14.835-9.75-12.127-3.687-6.847-3.862-10.202-14.214-.411-1.266-6.765-.922-5.804-6.242"/><path fill="#462401" fill-opacity=".541" d="m370.192 919.114.876-1.346a481 481 0 0 1 38.69 83.622c2.836 7.9 5.235 13.03 7.095 21.21l-.398.55c-2.05-4.7-3.256-9.6-5.065-14.37-11.275-29.769-24.036-62.767-41.198-89.666"/><path fill="#683c04" fill-opacity=".251" d="M315.289 542.402c.259-1.178.059-3.025.256-4.477l1.791.437c5.425 14.292 4.846 29.778-.905 44.022-.979 2.425-2.273 4.417-3.24 6.982l-.477-.163c1.291-3.768 3.64-9.858 4.583-13.559 4.165-13.932-2.671-20.873-2.008-33.242"/><path fill="#251000" fill-opacity=".404" d="m312.277 921.434 2.332.382c1.82 3.678 9.848 12.261 12.301 16.306 11.483 18.938 26.492 45.145 31.62 66.458-.805-.11-5.172-12.102-5.778-13.647-10.014-25.514-22.982-48.393-40.475-69.499"/><path fill="#462401" fill-opacity=".576" d="M342.535 818.819c-15.8-8.534-40.705-12.857-58.436-13.84-3.96-.22-16.645-.434-19.384-1.097 22.828-3.261 57.89 4.821 79.234 14.018z"/><path fill="#462401" fill-opacity=".494" d="M266.966 820.921c23.009 3.473 40.585 7.455 62.192 17.376l-.338 1.451c-11.859-8.75-49.898-16.176-64.918-17.734z"/><path fill="#462401" fill-opacity=".608" d="M324.496 788.073c19.899 2.742 37.328 8.632 55.5 17.188l-1.092 1.194c-13.817-8.25-39.079-15.311-55.036-17.271z"/><path fill="#462401" fill-opacity=".486" d="M291.72 767.267q13.52.298 27.041.05c3.976.069 6.301.005 10.164.87l.239.804c-22.909-1.687-44.617-.57-67.399 1.681l-.024-1.129z"/><path fill="#462401" fill-opacity=".58" d="M353.861 770.806c17.146 4.097 30.642 9.615 46.569 17.224l-.393 1.468c-9.339-6.39-35.401-14.977-46.813-17.633z"/><path fill="#c38a2e" fill-opacity=".616" d="m306.131 521.251.931-.098c3.143 4.858 7.779 12.037 10.274 17.209l-1.791-.437c-.197 1.452.003 3.299-.256 4.477l-2.399-6.618-.23-.618c-1.72-4.112-4.931-7.579-7.784-11.046z"/><path fill="#9c691e" fill-opacity=".176" d="m299.511 518.328 2.601 2.31 2.764 3.482c2.853 3.467 6.064 6.934 7.784 11.046l-3.396-.368c-5.462-7.391-5.667-7.502-9.986-15.247z"/><path fill="#462401" fill-opacity=".388" d="M261.312 786.369c7.41-.406 33.122-1.783 39.185-.41l-2.069.989c-8.458.427-20.326.118-29.168.174-3.449.008-4.562-.149-7.948-.753"/><path fill="#653904" fill-opacity=".439" d="M267.958 500.795c5.404.676 19.648 3.923 22.858 8.273-2.51-.097-6.369-2.303-8.767-3.49-3.948-1.831-7.452-2.473-11.69-3.258-3.283-.415-6.749-.362-10.068-.405-3.175.002-6.586-.201-9.615.639l-1.741.268-.248-.959c3.148-.839 6.621-.758 9.901-.851 3.128.025 6.273.153 9.37-.217"/><path fill="#462401" fill-opacity=".427" d="M352.168 892.32c6.487 7.925 13.698 16.604 18.9 25.448l-.876 1.346c-5.761-9.463-12.3-17.711-19.202-26.35z"/><path fill="#462401" fill-opacity=".451" d="M277.927 866.788c-14.028-5.511-20.312-7.106-34.918-10.254l.399-.505a128 128 0 0 1 35.778 10.101z"/><path fill="#462401" fill-opacity=".51" d="M312.093 858.499c7.989 4.644 20.988 14.229 27.572 20.801l-1.194.584c-5.602-5.364-18.717-15.989-25.518-19.312z"/><path fill="#9c691e" fill-opacity=".153" d="M309.264 534.798c-3.058-1.507-5.813-5.373-7.786-8.145-2.72-3.823-3.519-2.999-7.629-4.864l-.326-1.158c1.959-1.241 3.207-.917 5.755-1.08 4.319 7.745 4.524 7.856 9.986 15.247"/><path fill="#462401" fill-opacity=".145" d="M312.277 921.434c-2.672-2.448-11.693-10.059-11.869-13.324 3.111 1.327 13.078 11.669 14.201 13.706z"/><path fill="#deaa40" fill-opacity=".608" d="M290.816 509.068c1.553.877 5.385 3.191 6.857 3.654 1.584 1.524 4.76 4.406 5.978 6.028l-1.539 1.888-2.601-2.31c-4.462-3.438-5.247-4.644-8.695-9.26"/><path fill="#462401" fill-opacity=".467" d="M257.007 839.27c6.037.605 24.956 5.721 30.286 8.5l.138.396c-9.594-1.909-20.876-6.833-30.235-7.776z"/><path fill="#462401" fill-opacity=".161" d="M263.585 883.347c5.064.143 15.368 6.68 18.841 10.428-3.886-.501-15.214-7.949-18.841-10.428"/><path fill="#462401" fill-opacity=".408" d="M234.091 872.354c6.877.394 22.97 7.135 28.844 10.916-2.629-.43-25.084-9.452-28.844-10.916"/><path fill="#462401" fill-opacity=".314" d="M343.949 817.9c2.442.965 11.677 5.474 13.245 7.218-6.876-1.807-8.532-3.274-14.659-6.299z"/><path fill="#462401" fill-opacity=".259" d="M379.996 805.261c3.967 2.223 7.818 4.333 11.635 6.823l-.782 1.83c-2.673-2.232-8.723-5.561-11.945-7.459z"/><path fill="#462401" fill-opacity=".604" d="M328.925 768.187c7.621-.182 15.376 1.123 22.91 2.356l-2.754 1.03c-4.783-1.527-14.64-2.152-19.917-2.582z"/><path fill="#462401" fill-opacity=".243" d="M329.158 838.297c3.216 1.583 7.635 3.883 10.312 6.188l-.057.449-.668-.271.166-.492 1.212 1.237c-.528-.395-9.07-4.291-11.303-5.66z"/><path fill="#462401" fill-opacity=".267" d="M400.43 788.03c3.086 1.211 7.63 3.645 9.75 6.214-2.87-.039-7.507-3.183-10.143-4.746z"/><path fill="#462401" fill-opacity=".235" d="M339.665 879.3c2.767 2.726 5.962 5.724 8.597 8.519l-.541 1.333c-1.884-1.234-7.602-7.387-9.25-9.268z"/><path fill="#462401" fill-opacity=".161" d="M249.649 770.975c2.894-.718 8.904-1.124 12.092-1.432l.024 1.129c-3.805.964-7.904 1.115-11.835 1.393z"/><path fill="#462401" fill-opacity=".118" d="M291.72 767.267c6.437-.968 20.541-.99 27.041.05q-13.52.248-27.041-.05"/><path fill="#462401" fill-opacity=".408" d="M283.395 894.839c1.997-.289 8.252 5.264 10.071 6.703l-.476.178c-2.382-.357-7.883-4.929-9.595-6.881"/><path fill="#462401" fill-opacity=".329" d="M279.186 866.13c2.016.613 6.016 1.93 7.006 3.833-2.534.222-5.789-1.909-8.265-3.175z"/><path fill="#462401" fill-opacity=".353" d="M295.773 850.687c4.17 1.038 6.732 2.56 10.554 4.541l-.566 1.034-10.184-4.857z"/><path fill="#462401" fill-opacity=".255" d="M426.869 806.72c2.126 1.886 2.944 2.678 4.732 4.877l-.109.969c-2.76-1.091-4.066-3.163-6.027-5.492z"/><path fill="#462401" fill-opacity=".416" d="m251.748 819.682 13.419 1.121-3.506.858c-4.198-.542-7.756-.758-11.99-.985z"/><path fill="#462401" fill-opacity=".231" d="M306.327 855.228c1.634.773 5.138 2.022 5.766 3.271l.86 2.073c-3.005-1.561-4.419-2.355-7.192-4.31z"/><path fill="#462401" fill-opacity=".38" d="M251.602 839.827c-3.399-1.282-5.187-.54-9.161-2.653l.074-.123 1.345.575.469-.345c3.171.385 6.783 1.13 9.963 1.711z"/><path fill="#462401" fill-opacity=".322" d="M423.03 805.264c-2.273-1.791-4.219-2.996-5.608-5.497l.417-.65c1.63.573 2.936 2.305 4.167 3.638z"/><path fill="#462401" fill-opacity=".639" d="M300.497 785.959q6.716.388 13.403 1.126l-3.759.772c-3.844-.789-7.787-.784-11.713-.909z"/><path fill="#462401" fill-opacity=".373" d="M316.228 787.374c1.961.093 6.621.157 8.268.699l-.628 1.111c-2.467-.023-5.859-.311-8.394-.454z"/><path fill="#deaa40" fill-opacity=".753" d="m303.651 518.75 2.48 2.501-1.255 2.869-2.764-3.482z"/><path fill="#462401" fill-opacity=".145" d="M269.26 787.122c-4.437.513-6.154.633-10.585.39l-.092-.675 2.729-.468c3.386.604 4.499.761 7.948.753"/><path fill="#462401" fill-opacity=".161" d="M249.671 820.676c-1.781-.165-3.729-.112-5.093-1.146 2.747-.854 4.319-.321 7.17.152z"/><path fill="#462401" fill-opacity=".314" d="m390.849 813.914.782-1.83c2.074 1.034 2.501 1.099 3.931 2.831l-.337.812c-2.13-.399-2.456-.708-4.376-1.813"/><path fill="#462401" fill-opacity=".341" d="M249.93 772.065c-2.809.266-5.15.632-7.947.1 2.671-1.019 4.821-.988 7.666-1.19z"/><path fill="#462401" fill-opacity=".18" d="M292.746 874.511c2.24.406 4.088.391 5.187 2.315l-.752.311c-2.484-.372-2.331-.822-4.435-2.626"/><path fill="#462401" fill-opacity=".4" d="M348.401 851.95c2.665.674 2.958 1.147 5.15 2.976l-.551.243c-2.338-.372-2.629-1.32-4.599-3.219"/><path fill="#462401" fill-opacity=".267" d="M313.9 787.085c.386.041 2.086.188 2.328.289l-.754 1.356c-1.598-.144-3.713-.588-5.333-.873z"/><path fill="#462401" fill-opacity=".608" d="m348.262 887.819 3.906 4.501-1.178.444-3.269-3.612z"/><path fill="#462401" fill-opacity=".663" d="M422.006 802.755c1.574 1.28 3.346 2.653 4.863 3.965l-1.404.354-2.435-1.81z"/><path fill="#653904" fill-opacity=".169" d="M248.935 502.822c-1.901.717-1.795.693-3.826.532l.337-.88 3.241-.611z"/><path fill="#462401" fill-opacity=".169" d="m254.292 838.992 2.715.278.189 1.12c-2.103.155-3.521-.204-5.594-.563z"/><path fill="#462401" fill-opacity=".094" d="M295.577 851.405c-2.096-.479-2.319-.433-3.875-1.807 2.141-.315 1.701-.063 4.071 1.089z"/><path fill="#683c04" fill-opacity=".071" d="M258.588 501.012c3.302-.844 5.991-.885 9.37-.217-3.097.37-6.242.242-9.37.217"/><path fill="#683c04" fill-opacity=".122" d="M250.676 502.554c3.029-.84 6.44-.637 9.615-.639-3.985.729-5.521.702-9.615.639"/><path fill="#462401" fill-opacity=".349" d="m351.835 770.543 2.026.263-.637 1.059-4.143-.292z"/><path fill="#462401" fill-opacity=".188" d="m265.167 820.803 1.799.118-3.064 1.093-2.241-.353z"/><path fill="#462401" fill-opacity=".318" d="M49.433 238.961c4.183-2.766 10.111-5.603 14.724-8.433a537 537 0 0 0 37.318-24.86c4.785-3.551 38.174-30.737 40.305-31.405-7.154 12.078-77.767 60.796-93.328 66.591z"/><path fill="#653904" fill-opacity=".298" d="m118.017 228.414 1.365.687c-12.838 11.821-57.832 43.491-73.445 47.931l-.014-1.206c3.317-2.113 7.052-4.07 10.558-5.9 22.315-11.651 42.317-25.114 61.536-41.512"/><path fill="#653904" fill-opacity=".639" d="M246.809 108.65c13.911-28.497 27.002-51.632 45.51-77.672 3.326-4.68 8.044-12.666 11.613-16.56l.772.295c-1.38 2.553-3.321 4.416-4.881 6.832-12.225 18.94-25.327 37.569-36.551 57.148-5.479 9.558-10.467 20.466-15.5 30.353z"/><path fill="#653904" fill-opacity=".651" d="M134.317 213.498c4.349-3.197 13.372-12.542 17.075-16.507a569 569 0 0 0 31.747-37.245c6.642-8.533 13.803-18.706 20.622-26.839l1.048.076c-18.439 25.894-46.616 61.198-70.099 81.901z"/><path fill="#462401" fill-opacity=".686" d="M241.567 77.035c4.052-7.267 40.385-62.867 44.355-65.007.246-.829-40.911 62.315-43.43 65.442z"/><path fill="#462401" fill-opacity=".655" d="M246.223 49.544c2.216-4.665 31.755-44.535 35.202-45.832-7.322 8.976-29.754 41.503-35.202 45.832"/><path fill="#653904" fill-opacity=".718" d="M219.18 86.504c4.287-5.862 23.327-34.557 27.043-36.96-.931 3.182-21.546 31.338-24.706 36.036z"/><path fill="#653904" fill-opacity=".522" d="M45.937 277.032c-6.38 2.012-38.913 14.938-42.28 13.77 4.973-1.262 7.58-3.01 12.124-4.521 10.188-3.389 20.104-6.61 30.142-10.455z"/><path fill="#462401" fill-opacity=".553" d="m49.433 238.961-.981 1.893c-10.088 4.939-26.704 11.57-37.453 15.249l-.472-.304c2.545-1.62 4.879-2.724 7.712-3.728 10.727-3.801 20.917-8.224 31.194-13.11"/><path fill="#683c04" fill-opacity=".663" d="M214.219 117.526c6.134-8.436 14.748-23.146 20.98-30.586l1.135.107c-5.149 7.607-15.824 24.58-21.038 30.916z"/><path fill="#653904" fill-opacity=".702" d="m317.656 4.626.685.357c-1.627 4.12-16.245 26.995-19.326 31.954-.585-2.981 15.92-27.876 18.641-32.31"/><path fill="#462401" fill-opacity=".322" d="M182.526 133.811c-4.892 5.951-11.156 12.934-17.422 17.479.869-2.192 13.684-15.849 16.059-17.763z"/><path fill="#683c04" fill-opacity=".737" d="m246.809 108.65.963.396c-1.55 3.171-13.891 28.965-15.402 29.712-.059-1.672 12.821-26.914 14.439-30.108"/><path fill="#653904" fill-opacity=".482" d="m134.317 213.498.393 1.386c-4.759 4.663-11.167 9.977-15.328 14.217l-1.365-.687c5.427-4.593 11.488-11.102 16.3-14.916"/><path fill="#462401" fill-opacity=".38" d="M141.78 174.263c1.728-3.657 8.193-9.251 11.587-11.557l1.405.396c-1.293 1.623-11.238 10.535-12.992 11.161"/><path fill="#462401" fill-opacity=".592" d="M181.163 133.527c2.005-2.545 10.168-13.488 12.454-14.217-.591 2.354-8.791 11.448-11.091 14.501z"/><path fill="#462401" fill-opacity=".545" d="M193.617 119.31c1.498-2.909 9.491-14.04 11.992-15.02-.525 2.551-9.889 13.462-11.992 15.02"/><path fill="#653904" fill-opacity=".569" d="M153.367 162.706c2.335-2.666 4.138-4.823 6.827-7.152l.554.27.885-1.481-.596.46.438.065c-1.009 2.488-4.668 5.835-6.703 8.234z"/><path fill="#653904" fill-opacity=".733" d="m211.701 121.168.718 1.132-7.61 10.683-1.048-.076c1.291-2.484 6.12-9.105 7.94-11.739"/><path fill="#653904" fill-opacity=".792" d="m241.567 77.035.925.435c-1.925 3.034-4.12 6.692-6.158 9.577l-1.135-.107c1.447-2.814 4.513-7.13 6.368-9.905"/><path fill="#462401" fill-opacity=".557" d="M285.922 12.028c1.599-3.33 4.647-9.155 8.167-10.631-2.027 2.936-5.569 8.583-8.167 10.631"/><path fill="#462401" fill-opacity=".522" d="M291.153 18.608c1.764-2.611 3.141-5.05 5.566-7.027-.204 2.14-2.531 5.152-3.807 7.109z"/><path fill="#462401" fill-opacity=".329" d="M221.517 85.58c-1.731 2.175-3.414 4.956-5.871 5.727l.232-.063-.153-1.246c1.134-1.44 1.852-2.638 3.455-3.495z"/><path fill="#462401" fill-opacity=".231" d="M292.912 18.69c-1.731 2.184-1.464 2.68-3.503 3.05.115-2.104-.14-1.308 1.744-3.132z"/><path fill="#653904" fill-opacity=".533" d="m214.219 117.526 1.077.437-2.877 4.337-.718-1.132z"/><path fill="#462401" fill-opacity=".247" d="m210.885 163.787.985.614-1.455 2.037-.736-.452z"/><path fill="#462401" fill-opacity=".243" d="M48.83 173.511c5.587-4.502 15.073-8.999 21.432-12.829 39.064-23.527 74.427-52.298 108.016-83.023 1.738-1.59 7.538-6.887 9.457-7.08-6.243 7.467-18.398 17.5-25.929 24.058-30.674 26.71-76.152 62.274-113.056 80.148z"/><path fill="#462401" fill-opacity=".235" d="M232.052 23.408c-2.396 3.817-11.676 12.554-15.2 15.42l-.287-.337c3.848-4.637 9.349-11.861 14.055-15.144z"/><path fill="#462401" fill-opacity=".259" d="M235.563 17.92c1.072-3.786 12.967-15.326 16.584-16.578-1.711 3.329-13.632 15.189-16.584 16.578"/><path fill="#462401" fill-opacity=".302" d="M13.164 190.541c1.3-.14.833-.111 2.17.306-2.114 1.937-8.4 4.331-11.33 5.6-.566.156-1.39.117-2.023.134.757-1.334 9.102-5.018 11.183-6.04"/><path fill="#462401" fill-opacity=".22" d="M199.753 57.868c-1.054 2.239-5.015 6.221-7.447 7.024l-.182-.911c1.908-2.776 3.711-4.071 6.288-6.215z"/><path fill="#462401" fill-opacity=".173" d="M213.623 48.449c.429.109.902.469 1.318.727a282 282 0 0 1-4.514 6.827c-1.167-.285-.783-.087-1.644-.916.804-2.77 2.851-4.55 4.84-6.638"/><path fill="#462401" fill-opacity=".247" d="m28.204 183.582.439 1.421c-2.312 1.27-4.903 3.076-7.247 2.49 1.668-2.115 4.225-2.824 6.808-3.911"/><path fill="#462401" fill-opacity=".533" d="m48.83 173.511-.08 1.274c-4.337 1.851-7.117 3.371-11.246 5.697l.145-1.39c3.785-2.052 7.166-3.955 11.182-5.581"/><path fill="#462401" fill-opacity=".576" d="M198.412 57.766c2.918-3.721 4.598-5.28 8.108-8.517-2.149 3.306-5.784 7.018-6.767 8.62z"/><path fill="#462401" fill-opacity=".373" d="M230.62 23.347c1.168-2.296 2.631-4.297 4.943-5.427-.674 3.453-1.787 2.837-3.511 5.487z"/><path fill="#462401" fill-opacity=".345" d="M28.204 183.582a218 218 0 0 1 7.188-3.091l-.013 1.239-6.736 3.273z"/><path fill="#462401" fill-opacity=".212" d="m37.649 179.092-.145 1.39-2.125 1.248.013-1.239c.996-1.121.716-.749 2.257-1.399"/><path fill="#462401" fill-opacity=".486" d="M1063.6 959.993c2.4-2.08 24.11-13.649 28.11-15.806 20.81-11.224 39.71-21.14 59.19-34.915l.55.955c-9.34 8.163-33.25 21.276-44.35 27.271a3831 3831 0 0 0-43.36 23.603z"/><path fill="#462401" fill-opacity=".694" d="m1231.68 799.123.89.849c-11.97 32.3-17.19 43.636-37.52 70.953l-3.24 2.082c19.72-25.336 29.14-43.217 39.87-73.884"/><path fill="#462401" fill-opacity=".306" d="m1037.14 977.506.5.422c-.88 2.519-11.68 9.889-14.44 11.506l-.61-.484c1.19-2.317 11.78-9.913 14.55-11.444"/><path fill="#462401" fill-opacity=".447" d="M1164.56 899.237c2.36-2.167 7.85-7.762 10.64-8.621l-.59 1.257-.9-.618.46 1.144c-3.18 3.235-5.43 5.303-9.19 7.909z"/><path fill="#462401" fill-opacity=".667" d="m1164.56 899.237.42 1.071c-2.68 1.997-11.03 8.479-13.53 9.919l-.55-.955c4.5-3.153 9.2-6.755 13.66-10.035"/><path fill="#462401" fill-opacity=".631" d="M1050.69 968.607c1.87-2.201 10-6.831 12.91-8.614l.14 1.108c-2.42 1.572-10.82 7.435-13.05 7.506"/><path fill="#462401" fill-opacity=".408" d="M1236.03 788.116c1.11-3.271 2.71-8.843 4.62-11.477-.25.405-.49.81-.74 1.215l.48.753c-1.1 3.481-2.08 6.526-3.39 9.93z"/><path fill="#462401" fill-opacity=".592" d="m1236.03 788.116.97.421-4.43 11.435-.89-.849z"/><path fill="#462401" fill-opacity=".353" d="M1039.48 976.574c2.52-3.56 2.74-3.438 6.83-4.858-2.12 2.939-3.63 3.372-6.83 4.858"/><path fill="#462401" fill-opacity=".412" d="M1046.31 971.716c.55-1.841 2.8-2.396 4.38-3.109-1.15 1.723-1.83 3.473-4.38 3.109"/><path fill="#462401" fill-opacity=".341" d="M1195.05 870.925c-1.63 1.943-2.77 3.429-4.72 5.094l-.32-1.822 1.8-1.19z"/><path fill="#462401" fill-opacity=".608" d="M1190.33 876.019c-1.27 1.4-1.58 1.645-3.09 2.823-.09-1.57 1.58-3.085 2.77-4.645z"/><path fill="#683c04" fill-opacity=".325" d="M49.878 447.68c3.63.865 7.946 4.36 11.133 6.61l-1.003.491c-2.885-1.188-7.47-5.047-10.13-7.101"/><path fill="#683c04" fill-opacity=".278" d="m1533.41 374.102 1.17-.027.5.755c-4.45 3.534-14.25 8.808-19.56 11.989-16.07 9.64-45.48 25.709-58.46 38.732l-1.43.304.14-.921c7.84-11.095 63.97-42.363 77.64-50.832"/><path fill="#deaa40" fill-opacity=".988" d="M1303.07 393.98c8.28 8.623 15.85 16.67 24.94 24.509 1.49 2.596 12.79 10.005 16 10.77l3.88 2.447c3.07 2.795 11.52 11.286 15.67 9.651l.81.965c.75 2.124 8.88 6.827 11.64 8.713l4.26-4.88.55.995c-1.34 2.06-2.33 2.754-2.22 4.844 1.68 1.212 2.26 1.554 4.13 2.435 2.17 1.223 6.38 3.392 8 5.023 2.61 1.147 1.95 1.364 4.01.689l1.05.447-.29 1.668c3.02 1.502 5.78 2.967 8.99 4.033 2.7-1.574 4.53-2.814 7.08-4.616-1.21 1.796-1.57 2.601-3.56 3.492l-.45 1.617c3.56 3.183 13.93 5.221 18 1.803l.38 1.21-3.61 3.422c.5 4.236 23.59 8.891 28.05 9.7 15.17 1.871 54.66 5.415 68.79 2.374l-21-.149c9.13-.327 24.66-.45 33.34-1.358l-3.28-.244c3.74-.633 4.63-1.272 7.77.543v1.403c-21.89 3.102-45.84 3.792-67.97 2.754-8.57-.402-18.14-2.302-26.87-2.85-3.44-1.033-18.45-4.221-21.76-4.421l-.96-.521c-2.21-1.981-2.95-2.473-5.78-1.822-1.19 1.497-1.81 2.566-3.52 3.419l-.45-.622c1.22-1.651 2.01-2.373 2.35-4.332l-2.22-1.932c-1.44.693-2.4.236-4-.147l-1.11-.024c-4.45-2.962-9-5.333-13.85-7.553l-1.42-1.018c-2.6-1.701-28.35-17.342-29.96-17.85l-.59-.459c-2.62-2.578-11.13-8.728-14.47-11.259l-1.08-.826c-5.44-4.201-12.15-10.381-17.46-14.994-6.87-5.873-16.84-16.843-23.27-23.75z"/><path fill="#f3dd71" d="M75.475 529.5c38.137 27.959 71.295 67.495 93.636 109.08l.656 1.346c8.434 16.673 13.934 30.955 19.901 48.635-.571 2.272-.643 2.932-3.59 3.106-2.569-6.971-6.948-20.033-10.201-26.062l-.302-1.116c-8.33-24.036-35.515-65.115-52.219-84.351-9.448-14.336-35.737-38.065-49.263-49.404z"/><defs><linearGradient id="c" x1="1322.459" x2="1316.072" y1="386.441" y2="408.289" gradientUnits="userSpaceOnUse"><stop offset="0" stop-color="#885412" stop-opacity="0"/><stop offset="1" stop-color="#a1681b" stop-opacity=".016"/></linearGradient></defs><path fill="url(#c)" d="M1301.25 384.593c2.48-2.312 1.32-1.291 5.24-1.485 6.13-.304 31.07 8.613 34.69 12.545-.12 1.354-.66 3.414-.69 3.987-3.31 4.615-8.34 10.969-11.16 15.57-3.62-3.377-6.23-6.023-9.56-9.687-3.92-3.382-7.15-8.328-11.58-11.379l-.27-1.357c-.99-2.682-4.56-5.942-6.67-8.194"/><path fill="#683c04" fill-opacity=".725" d="m1398.32 484.247 1.24.477c-5.75 7.128-13.09 15.484-18.08 22.984-21.11 31.682-40.9 66.028-56.01 100.971-31.01 71.677-40.53 149.817-53.42 226.116-1.78 10.527-6.11 22.282-8.54 32.939-8.4 23.413-19.12 45.012-35.12 64.284-1.29 1.543-5.16 6.608-6.71 7.279.73-2.686 15.85-21.03 18.76-25.653a196.5 196.5 0 0 0 23.09-50.552c11.06-37.014 14.89-75.192 21.25-113.181 15.68-93.743 50.37-188.561 111.3-262.966z"/><path fill="#683c04" fill-opacity=".753" d="m1386.38 526.309 1.12.377c-53 95.498-74.43 173.035-86.29 281.564-8.62 61.213-17.25 103.589-55.11 154.873l-1.53-.051c25.34-33.891 36.84-61.311 46.7-102.38 7.28-31.682 10.73-69.665 15.63-102.327 9.77-65.149 25.02-122.606 53.9-181.922 8.49-17.433 15.23-33.11 25.58-50.134"/><path fill="#683c04" fill-opacity=".706" d="m1357.89 448.108.59.459c-32.32 42.119-60.16 93.066-81.79 141.393-15.48 34.568-28.68 72.26-44.72 106.189a520 520 0 0 1-44.34 75.74l-1.66-.081c6.18-7.564 14.35-21.021 19.52-29.328 32.27-51.893 50.47-110.279 75.86-165.871 20.6-45.102 41.01-78.102 68.53-118.808 2.32-3.058 4.97-7.719 8.01-9.693"/><path fill="#653904" fill-opacity=".733" d="m1374.54 484.47 2.28-.418c-53.76 70.534-90.05 162.486-109.06 248.273-7.06 31.87-13.55 71.603-23.73 101.735l-.67-.827c10.6-37.174 17.02-73.433 25.7-111.006 20.97-90.811 52.67-161.708 105.48-237.757"/><path fill="#462401" fill-opacity=".463" d="m1130.63 797.884 1.26.655c-18.99 13.936-34.13 21.434-55.39 31.292-29.44 12.881-58.4 23.772-88.611 35.163-40.77 15.372-84.174 30.353-119.391 56.558-2.726 2.029-19.855 16.793-20.988 17.166 38.176-44.741 135.568-71.096 190.19-94.009 12.86-5.394 28.31-10.832 40.71-17.365l.56-.299c14.24-4.983 39.43-20.72 51.66-29.161"/><path fill="#462401" fill-opacity=".612" d="m1184.42 773.398 1.18 1.35c-8.57 10.464-21.16 25.4-31.11 34.096-51.28 44.845-125.03 63.827-185.863 91.357a415.6 415.6 0 0 0-50.553 26.787c-5.366 3.403-10.471 7.753-15.302 10.816l-.9-.53-.805 1.154.754-.09-.407-.535-.373.662c3.805-5.012 11.863-9.217 17.181-12.669 35.113-22.789 74.482-36.753 113.108-52.166 3.86-1.54 26.07-10.253 27.98-12.018 3.34-.855 16.05-6.518 19.7-8.114 34.12-14.938 66.51-34.06 91.19-62.437 4.5-5.166 10.66-11.856 14.22-17.663"/><path fill="#683c04" fill-opacity=".863" d="m276.818 96.107.687.74c-1.589 3.799-5.173 11.767-6.094 15.413-3.341 9.721-9.795 23.158-14.11 32.819-25.867 57.913-44.398 122.193-71.805 179.055l-.714-.913c17.732-36.516 29.99-76.178 45.226-113.69 15.41-37.94 28.401-76.832 46.81-113.424"/><path fill="#462401" fill-opacity=".31" d="M32.295 214.901c3.248-2.242 19.484-9.495 25.052-12.773a600 600 0 0 0 61.724-42.227 805 805 0 0 0 53.267-46.676c6.031-5.68 13.664-15.02 19.56-19.393-3.287 7.11-19.273 21.362-25.487 27.209-28.378 26.701-57.989 51.029-91.026 71.845-13.736 8.655-27.022 17.217-42.37 23.037z"/><path fill="#653904" fill-opacity=".702" d="M1308.67 445.478c2.8-4.26 12.14-18.888 15.74-21.472-.91 2.973-4.44 7.148-6.52 9.68-26.93 40.769-47.93 80.133-67.22 125.083a8106 8106 0 0 0-25.26 59.516c-1.76 4.193-10.31 25.344-12.42 28.166l-1.15.101c3.02-6.5 5.77-13.104 8.59-19.7 21.49-50.336 41.55-101.521 68.79-149.128 6.24-10.903 12.27-21.929 19.45-32.246"/><path fill="#653904" fill-opacity=".698" d="m285.857 53.567.803 1.163c-27.991 47.157-51.686 96.632-70.799 147.929-10.944 29.37-27.158 53.751-43.091 80.293l-1.359-.085c3.745-6.511 8.335-12.95 12.296-19.471a506 506 0 0 0 21.749-39.797c8.31-17.165 11.717-30.114 18.546-46.081 18.857-44.094 37.405-82.547 61.855-123.952"/><path fill="#653904" fill-opacity=".745" d="M1188.31 737.698c38.79-57.679 58.3-132.428 90.49-194.088 6.11-11.696 11.42-24.013 18.38-35.273l.55 1.146c-21.54 39.426-39.22 80.434-56.31 121.94-16.09 39.102-29.16 70.732-51.91 106.806z"/><path fill="#683c04" fill-opacity=".043" d="m312.966 33.6 1.047.571-.449 1.213c-2.871 2.785-9.477 17.18-11.617 21.59-2.347 4.199-4.888 8.487-6.73 12.916-1.417.9-4.955 9.25-5.33 11.186-.137 2.801-4.903 11.127-6.711 13.56-2.261 1.317-7.253 14.334-8.161 17.195l-1.213 2.579c-1.591-.569-1.173-.532-2.391-2.15.921-3.646 4.505-11.614 6.094-15.412l-.687-.74c2.67-4.747 13.162-22.265 14.187-26.416 1.135-1.584 2.831-4.679 3.885-6.462 1.803-3.434 3.837-6.625 5.88-9.914 4.005-6.94 8.092-12.953 12.196-19.715"/><path fill="#462401" fill-opacity=".624" d="M444.224 824.116c11.152 11.484 22.79 30.708 30.697 44.656 28.389 50.075 44.501 99.981 59.05 155.228h-.989c-4.87-15.86-9.288-33.701-14.135-49.515-12.417-40.514-45.859-119.354-75.176-149.12z"/><path fill="#c38a2e" fill-opacity=".98" d="M189.668 688.561c3.897 12.358 9.178 31.702 10.53 44.481l.421 1.438 1.302 9.763.303 4.824c-1.121 5.271-.594 8.892-1.058 13.884-.533-7.205-1.295-16.031-3.181-22.947.805-7.058-9.419-39.842-11.907-48.337 2.947-.174 3.019-.834 3.59-3.106"/><path fill="#462401" fill-opacity=".016" d="M0 424.523c3.173 1.243 11.034 4.074 13.508 5.773l9.109 1.978c1.89-.117 2.814-.267 3.943 1.656 1.19 2.003 1.111 1.92 2.97 3.319-.634.241-1.529.671-2.128.69-4.584-1.573-16.784-.009-22.577.222-.877-.147-3.773-.129-4.825-.144z"/><path fill="#462401" fill-opacity=".584" d="M505.033 863.552c2.832 3.496 8.205 15.272 10.348 19.985 20.266 44.581 33.853 92.757 44.445 140.463h-1.363c-8.185-46.297-32.369-119.535-54.631-160.409z"/><path fill="#653904" fill-opacity=".337" d="m1512.25 278.922 1.46 1.231c-27.03 14.963-51.88 36.301-76.4 55.131-6.09 4.671-23.62 22.165-27.88 24.112 8.5-15.263 84.34-69.915 102.82-80.474"/><path fill="#8b5611" fill-opacity=".302" d="M1438.19 455.584c1.33-1.304 7.96-5.949 9.92-7.4a485.4 485.4 0 0 1 72.23-45.071c3.75-1.898 12.03-6.25 15.66-7.354v.847c-28.99 15.794-56.72 29.59-82.95 49.947-4.32 3.352-10.36 8.117-14.89 10.985-3.96 3.552-9.18 7.997-12.22 12.257l-.38-1.21c3.26-6.016 7.39-8.652 12.63-13.001"/><path fill="#462401" fill-opacity=".467" d="M389.716 1021.08c-4.617-10.88-7.651-21.74-12.034-32.429-19.169-46.745-35.263-79.033-77.008-108.748l.436-.71c3.436 1.075 7.496 5.12 10.499 7.443 42.513 32.887 63.419 87.883 80.066 137.364h-.668z"/><path fill="#462401" fill-opacity=".565" d="M376.004 875.823c30.322 36.711 49.14 82.786 63.882 127.647 2.207 6.72 4.065 13.97 6.409 20.53h-.781c-15.931-48.273-36.315-107.742-70.107-146.788z"/><path fill="#462401" fill-opacity=".576" d="M1025.08 905.957c3.27-2.409 18.2-8.123 22.47-10.015 39.44-17.484 79.31-34.923 112.93-62.479l-.84 2.613c-44.08 33.74-84.57 48.485-134.22 71.019z"/><path fill="#462401" fill-opacity=".612" d="m415.009 879.492 1.416-.461c29.509 48.315 44.834 91.05 61.455 144.969h-.842c-18.697-53.468-30.151-95.405-62.029-144.508"/><path fill="#462401" fill-opacity=".388" d="m1159.13 946.406 1.35.693c-13.61 10.496-28.97 19.762-43.43 29.063a2244 2244 0 0 0-45.14 29.868c-3.17 2.39-20.04 15.5-22.36 15.88l-.14-.81c10.14-6.19 24.19-17.91 35.27-25.269 24.85-16.516 49.98-32.426 74.45-49.425"/><path fill="#c38a2e" fill-opacity=".91" d="m160.318 576.87 1.759.167c20.701 46.076 28.461 73.74 36.259 123.261l-.982 1.247c-.296-4.284-2.599-15.442-3.435-20.039a404 404 0 0 0-33.601-104.636"/><path fill="#683c04" fill-opacity=".722" d="m1332.58 517.56 1.27.344c-15.46 26.421-25.08 47.471-37.06 75.412-4.58 10.694-20.69 53.757-25.91 60.065 1.05-4.826 5.46-12.64 7.44-17.656 16.05-40.555 32.42-80.383 54.26-118.165"/><path fill="#653904" fill-opacity=".698" d="m240.49 99.975.936.582c-23.663 42.715-46.643 79.369-76.337 117.957l-1.157-.492c23.659-29.546 43.076-61.012 62.417-93.429 4.86-8.145 9.156-16.578 14.141-24.618"/><path fill="#462401" fill-opacity=".298" d="m982.767 925.49 1.246 1.133c-23.668 12.65-39.462 22.235-59.666 40.94-5.958 5.516-17.965 19.172-22.514 22.964l-1.047-.455c.43-1.036.104-.473.841-1.339 20.53-24.107 52.048-50.066 81.14-63.243"/><path fill="#683c04" fill-opacity=".447" d="m1482.78 274.922 1.02 1.279c-4.03 1.631-13.14 7.985-17.31 10.772a574 574 0 0 0-51.77 39.376c-7.96 6.879-19.6 18.221-26.99 24.222l-.23-1.243c3.64-5.077 15.28-14.642 20.16-18.882 24.5-21.295 47.96-38.067 75.12-55.524"/><path fill="#653904" fill-opacity=".573" d="M36.329 407.921c1.865-.752 5.83-1.518 7.906-1.984 40.142-9 76.278-29.634 104.683-59.472l1.149.187c-26.975 31.133-73.547 55.442-113.991 62.375z"/><path fill="#462401" fill-opacity=".561" d="m460.947 903.332.909-1.39c15.084 32.812 28.929 64.741 39.773 99.308 1.983 6.32 5.717 16.59 7.119 22.75h-.742c-3.527-7.89-9.071-27.749-12.515-37.067-10.168-27.511-21.059-57.556-34.544-83.601"/><path fill="#462401" fill-opacity=".557" d="M330.115 749.302c32.097.757 59.437 4.78 88.561 19.066l-.468.851c-6.045-2.194-12.171-5.481-19.094-7.804-23.271-7.807-42.095-9.943-66.259-10.755-1.868-.751-8.133-.451-10.34.065-7.556-.706-31.424 1.271-39.021 2.629l.046-.943c12.589-2.468 33.591-3.106 46.575-3.109"/><path fill="#462401" fill-opacity=".698" d="M1186.56 805.796a343 343 0 0 0 29.87-44.974c5.26-9.663 30.04-61.335 33.21-64.585-2.08 6.832-9.64 21.594-13.1 28.407-9.35 18.371-18.89 37.603-29.83 55.055-5.31 8.46-11.93 16.945-17.66 25.266z"/><path fill="#683c04" fill-opacity=".514" d="M1536 357.916v.9c-9.15 6.723-18.9 12.434-28.21 19.044a761 761 0 0 0-59.96 47.752l-.35-1.33c11.36-13.493 72.18-57.932 88.52-66.366"/><path fill="#653904" fill-opacity=".31" d="m133.938 250.463 1.723.103c-15.564 16.545-47.643 40.594-68.77 49.617l-.273-1.308c1.228-1.61 17.204-9.169 20.583-11.244 17.344-10.654 31.384-24.323 46.737-37.168"/><path fill="#8b5611" fill-opacity=".035" d="M1297.93 387.307c.83-1.008.55-.695.92-2.075-1.27-2.393-1.63-3.05-2.31-5.654 2.09.454 2.51 2.135 4.05 4.432-.1 3.303 4.65 7.178 7.33 8.777l.27 1.357c1.4 2.817 8.4 10.156 10.89 12.585 2.69 2.705 9.09 7.986 8.93 11.76-9.09-7.839-16.66-15.886-24.94-24.509-1.7-2.238-3.41-4.463-5.14-6.673"/><path fill="#683c04" fill-opacity=".039" d="M326.804 7.621c-.297 4.707-3.277 8.628-5.87 12.465l-1.468.73-.893-.718c-1.928 1.935-2.325 2.23-2.981 4.85 1.612-1.466 2.141-1.89 3.404-3.635l1.107 2.2c-1.575 3.208-3.428 6.782-6.421 8.754l-.677.45-2.272 1.258-.948-.232c-1.201 1.69-2.697 4.307-4.471 5.045l-1.473-1.363 1.963-3.684c1.98-.678 5.742-7.46 7.034-9.589 2.9-4.403 3.352-5.671 5.672-10.156l2.244.774c1.197.584.553.468 2.005.017 2.018-2.082 2.884-4.524 4.045-7.166"/><path fill="#462401" fill-opacity=".588" d="m97.697 352.446.81 1.81-.685.251c-7.587 2.815-17.01 7.64-24.864 11.038C52.14 374.552 22.63 384.193 0 386.616v-.847c8.493-2.302 18.536-3.835 27.273-5.992 19.527-4.823 53.898-16.727 70.424-27.331"/><path fill="#653904" fill-opacity=".333" d="M1401.26 393.458c2.96-6.476 51.62-48.372 58.95-52.024-2.56 3.84-10.98 9.895-14.85 13.256-14.92 12.933-29.89 25.643-43.54 39.957z"/><path fill="#462401" fill-opacity=".776" d="m1265.1 663.26.59.147c-10.1 29.157-17.21 64.824-30.11 93.659l-1.05-.17c8.92-24.359 17.79-49.579 24.3-74.734 1.73-6.633 3.17-12.557 5.64-18.965z"/><path fill="#683c04" fill-opacity=".02" d="m266.959 102.895 2.292 1.447c-.015 1.852.292 1.053-1.034 2.438-2.747 3.101-5.632 10.523-7.138 14.513-1.491 2.897-3.041 5.814-4.403 8.771-1.497 2.423-5.474 9.052-6.21 11.514l-.28 1.012-1.68-1.145c4.537-8.083 9.228-21.997 14.97-32.642z"/><path fill="#462401" fill-opacity=".729" d="m1239.23 844.501.83 1.087c-13.86 34.695-26.19 52.661-52.26 78.595l-1.07-.58c26.77-26.006 38.3-44.419 52.5-79.102"/><path fill="#653904" fill-opacity=".561" d="m80.118 328.192.248 1.149C53.235 342.243 30.215 352.325 0 356.921v-1.099c20.784-3.959 37.2-8.513 56.901-16.917 7.867-3.355 15.365-7.279 23.217-10.713"/><path fill="#683c04" fill-opacity=".62" d="M1536 309.682v1.179c-25.8 17.645-45.02 31.714-69.71 50.18l-1.17-.649a859 859 0 0 1 49.85-36.661c6.07-4.191 14.89-10.636 21.03-14.049"/><path fill="#683c04" fill-opacity=".675" d="M1266.61 654.466c5.44-22.733 16.03-50.995 23.42-73.317 2.35-7.116 2.39-12.448 6.49-19.004.21.734-26.37 82.495-28.92 92.112z"/><path fill="#653904" fill-opacity=".725" d="m208.517 245.754.993.498c-9.678 20.297-27.499 57.793-40.548 75.644l-.508-1.107c15.939-25.116 27.123-48.471 40.063-75.035"/><path fill="#462401" fill-opacity=".333" d="M912.65 862.381c7.737-3.485 24.071-8.591 32.073-11.215a2616 2616 0 0 1 44.938-14.712l.355.995c-25.734 8.553-51.676 16.777-77.117 26.085z"/><path fill="#462401" fill-opacity=".247" d="m984.967 967.061 2.167-.046c-3.815 3.26-13.104 10.669-16.166 13.837-4.826 4.874-9.389 8.434-14.351 13.672-4.279 4.517-8.71 10.186-12.804 14.316-.51-1.03-.305-.52-.149-1.92 5.108-7.42 34.286-36.823 41.303-39.859"/><path fill="#462401" fill-opacity=".667" d="M1130.07 768.027c13.61-12.051 26.62-25.343 37.03-40.292 3.63-5.207 7.06-10.591 10.91-15.628l1.14.03c-11.87 18.989-30.75 43.279-48.73 57.015z"/><path fill="#653904" fill-opacity=".416" d="M203.618 776.229c.057-2.496-.327-1.681 1.172-3.262.579 6.612.568 32.111-1.686 38.06l.174-4.948c-.311 2.731-1.07 15.773-1.316 16.913-.097-2.814-.448-5.024-.851-7.783-.442-3.703.472-18.37.754-23.123l1.613-2.329c.429-5.254.342-8.332.14-13.528"/><path fill="#9c691e" fill-opacity=".902" d="m1275.37 364.272-.26-2.981.75-.07c2.66 3.14 7.83 11.478 10.17 12.892l.48.034c3.79 4.094 6.59 7.793 9.97 12.207-.45 2.258-.42 2.383-.08 4.694-7.79-8.745-14.2-17.296-21.03-26.776"/><path fill="#462401" fill-opacity=".773" d="m1211.84 646.552 1.15-.101c-6.95 19.026-23.49 49.119-33.84 65.686l-1.14-.03c2.69-5.715 9.41-16.07 12.92-22.462a510 510 0 0 0 20.91-43.093"/><path fill="#683c04" fill-opacity=".384" d="m1461.05 363.456 2.24.444c-13.33 10.423-30.15 25.399-42.04 37.321l-.67-1.29c11.03-11.806 28-26.459 40.47-36.475"/><path fill="#462401" fill-opacity=".173" d="M332.141 0h3.78c-2.899 4.59-6.723 10.282-9.121 15.033-1.698 2.445-2.27 3.096-3.052 6.028l-.588 2.294c-1.803.555-2.14-.027-3.057.159l-1.107-2.2.47-.497 1.468-.73c2.593-3.838 5.573-7.759 5.87-12.466.254-2.142 3.826-5.902 5.337-7.621"/><path fill="#8b5611" fill-opacity=".62" d="m1328.84 454.592.74 1.133c-12.57 18.534-20.62 35.401-31.85 53.758l-.55-1.146c1.44-3.511 7.31-13.495 9.5-17.335 6.86-12.018 14.04-25.262 22.16-36.41"/><path fill="#462401" fill-opacity=".259" d="M1182.92 1022.24c.36-.65 34.55-29.308 38.1-31.772-3.97 7.091-30.87 29.652-38.1 31.772"/><path fill="#462401" fill-opacity=".475" d="M989.661 836.454c21.969-7.875 41.519-14.51 62.999-23.807l1.16.795c-21.7 10.537-44.02 15.455-63.804 24.007z"/><path fill="#683c04" fill-opacity=".318" d="M1456.94 392.037c5.79-6.424 29.03-23.493 36.41-28.964l2.23.024c-12.12 10.363-25.44 19.428-38.02 30.329z"/><path fill="#683c04" fill-opacity=".925" d="M301.947 56.973c2.14-4.41 8.746-18.804 11.617-21.59l1.951.344c.182 3.741-1.622-.582-1.044 3.869a86 86 0 0 0 3.155-3.011c.607 1.433.349 2.349.186 3.9-.435 3.09.113 2.255-1.688 4.358-4.337-1.779-.965-2.924-3.762-2.565-3.84 5.378-6.047 10.164-9.411 15.517z"/><path fill="#462401" fill-opacity=".631" d="M254.272 75.489c7.91-13.553 23.637-39.192 33.56-51.297l.212.293c-8.805 15.4-20.209 29.54-28.771 45.145-.989 1.802-2.767 4.8-4.012 6.346z"/><path fill="#462401" fill-opacity=".404" d="M1153.63 873.392c8.39-8.06 19.28-14.697 27.17-23.709 2.7-3.077 6.07-6.904 9.11-9.475l1.29.245c-7.52 8.967-26.84 28.397-37.09 33.946z"/><path fill="#c38a2e" fill-opacity=".722" d="m106.765 493.377.45.048c9.136 10.465 28.724 35.209 34.872 47.483l-1.253.206a334.4 334.4 0 0 0-34.518-46.625z"/><path fill="#683c04" fill-opacity=".678" d="m181.885 328.984 1.138.395c-10.923 21.495-17.461 31.477-32.817 50.474l-1.243-.146c4.738-6.859 10.492-13.473 15.356-20.491 6.925-9.99 11.91-19.546 17.566-30.232"/><path fill="#653904" fill-opacity=".659" d="m246.542 143.1.639 1.275c-5.767 12.984-20.576 50.125-26.911 58.887.058.194 23.907-54.947 26.272-60.162"/><path fill="#683c04" fill-opacity=".631" d="m107.098 413.172.209 1.741c-13.155 6.024-43.225 20.93-58.056 19.42 2.22-.928 15.475-3.983 18.89-4.86a137.5 137.5 0 0 0 38.957-16.301"/><path fill="#683c04" fill-opacity=".671" d="M276.035 82.906c3.944-9.45 12.689-20.236 17.811-29.368 2.262-4.034 8.813-17.882 11.958-19.797l-1.963 3.684c-9.286 17.992-17.24 28.88-26.866 45.954z"/><path fill="#653904" fill-opacity=".29" d="M90.43 322.27c8.377-4.019 29.968-21.838 33.335-22.943-2.044 6.903-27.106 20.657-32.854 24.896z"/><path fill="#653904" fill-opacity=".655" d="m209.291 182.727.971.481c-7.977 14.904-17.818 32.166-27.157 46.347l-1.604.001a849 849 0 0 0 27.79-46.829"/><path fill="#462401" fill-opacity=".804" d="m1234.53 756.896 1.05.17c-7.24 19.203-14.17 33.548-23.5 51.732l-1.19-.335c9.4-18.089 16.03-32.771 23.64-51.567"/><path fill="#462401" fill-opacity=".561" d="M1130.63 797.884c17.6-12.942 21.62-18.658 36.82-32.682l1.34.304c-13.95 14.65-20.41 20.866-36.9 33.033z"/><path fill="#462401" fill-opacity=".447" d="m1162.4 989.609-1.62 2.793c-5.92 3.743-43.82 30.058-46.72 30.128l-.33-.28c16.27-11.16 32.17-21.08 48.67-32.641"/><path fill="#683c04" fill-opacity=".322" d="m1523.34 295.927 2.45.524c-12.68 7.159-22.18 14.259-34.15 22.083l-.93-1.131a367 367 0 0 1 32.63-21.476"/><path fill="#9c691e" fill-opacity=".725" d="M1407.26 493.434c3.58-3.599 7.6-10.311 11.18-12.986l.96.521c-2.15 2.702-5.15 6.022-7.07 8.622-11.16 13.336-13.51 19.873-22.36 32.485l-.9-.741c6.02-10.073 11.92-18.338 18.19-27.901"/><path fill="#8b5611" fill-opacity=".561" d="M1262.43 343.765c4.54 2.58 5.92 9.284 10.22 12.95l.11-.72 1.1-.696c1.47 2.14 12.39 17.758 12.65 18.848l-.48-.034c-2.34-1.414-7.51-9.752-10.17-12.892l-.75.07.26 2.981c-4.19-6.279-9.61-13.922-12.94-20.507"/><path fill="#653904" fill-opacity=".537" d="M1493.35 363.073c7.67-6.959 34.07-25.873 42.65-30.318v1.194c-10.18 6.302-32.16 21.407-40.42 29.148z"/><path fill="#462401" fill-opacity=".353" d="M1022.03 942.4c2.98-2.498 33.08-17.887 37.4-18.256-4.99 4.156-29.48 15.16-37.03 19.663z"/><path fill="#9c691e" fill-opacity=".89" d="M1319.77 405.523c3.33 3.664 5.94 6.31 9.56 9.687l.65 1.09c3.22 3.018 10.49 10.056 13.92 12.251l.11.708c-3.21-.765-14.51-8.174-16-10.77.16-3.774-6.24-9.055-8.93-11.76z"/><path fill="#683c04" fill-opacity=".341" d="m1377.63 393.145-.07-.752c1.86-3.481 22.66-25.388 26.5-27.621-1.22 2.558-23.99 27.671-26.43 28.373"/><path fill="#653904" fill-opacity=".71" d="m169.238 285.119 1.4.41c-8.796 11.975-17.419 23.251-27.837 33.913-1.563 1.6-4.094 4.04-5.37 5.695l-1.292-.497c13.658-13.66 22.134-23.924 33.099-39.521"/><path fill="#462401" fill-opacity=".051" d="M325.472 0h6.669c-1.511 1.72-5.083 5.48-5.337 7.621-1.161 2.642-2.027 5.084-4.045 7.166-1.452.451-.808.567-2.005-.017.727-3.63 2.283-3.225 2.703-6.903l-1.633-1.498c1.928-2.304 3.115-3.493 3.648-6.369"/><defs><linearGradient id="d" x1="5.463" x2="7.768" y1="411.768" y2="406.541" gradientUnits="userSpaceOnUse"><stop offset="0" stop-color="#542b01" stop-opacity="0"/><stop offset="1" stop-color="#552c00" stop-opacity=".173"/></linearGradient></defs><path fill="url(#d)" d="M0 403.416c1.775 1.157 5.255 2.059 5.94 2.724l-1.04.944c1.552 1.518 3.433 1.634 5.64 2.126l.593.018 1.456 3.081-.287.314c-2.796-1.52-8.887-.728-12.302-.517z"/><path fill="#462401" fill-opacity=".608" d="M421.728 838.252c10.081 11.36 18.72 24.685 26.407 37.753l-1.225.344c-6.586-11.073-16.552-26.815-25.419-36.181z"/><path fill="#653904" fill-opacity=".722" d="m181.501 229.556 1.604-.001c-10.263 15.208-18.496 26.525-29.973 40.791l-1.144-.529a369 369 0 0 0 29.513-40.261"/><path fill="#462401" fill-opacity=".659" d="M480.2 822.637c7.275 9.008 20.469 30.295 24.833 40.915l-1.201.039c-7.779-15.181-14.196-25.953-24.034-39.877z"/><path fill="#683c04" fill-opacity=".294" d="M1347.32 391.602c1.32-1.87 21.73-24.43 22.55-24.878l.98.857c-4.25 5.803-16.71 19.113-21.96 24.536z"/><path fill="#653904" fill-opacity=".612" d="M1253.42 324.819c.53-7.01-15.92-32.438-15.21-44.205 1.01 2.049 1.71 4.808 2.23 7.052 3.04 13.218 12.87 27.697 16.28 40.173z"/><path fill="#462401" fill-opacity=".247" d="M1004.22 1002.79c2.26-.88 2.83-1.51 4.77-3.066l2.09.259c-.79.817-1.84 2.007-2.71 2.667-4.68 3.21-14.709 14.34-20.096 19.03.558-4.18 12.946-13.68 15.946-18.89"/><path fill="#9c691e" fill-opacity=".631" d="M1384.05 441.032c6.66-8.213 17.14-21.531 24.65-28.365l-1.03 2.945c-4.86 4.133-18.05 19.999-22.39 25.876-1.31 1.694-3.08 4.13-4.46 5.662l-.55-.995z"/><path fill="#8b5611" fill-opacity=".675" d="m1355.41 482.009.76 1.088c-8 11.55-14.94 22.839-22.32 34.807l-1.27-.344c7.82-12.569 14.51-23.332 22.83-35.551"/><path fill="#462401" fill-opacity=".537" d="m1022.03 942.4.37 1.407c-8.81 4.52-28.115 16.991-35.266 23.208l-2.167.046c11.019-9.155 24.783-17.268 37.063-24.661"/><path fill="#c38a2e" fill-opacity=".796" d="m142.739 544.198 1.344-.471c6.111 10.949 12.678 21.996 17.994 33.31l-1.759-.167c-5.301-11.293-11.404-21.859-17.579-32.672"/><path fill="#8b5611" fill-opacity=".643" d="m1401.26 393.458.56 1.189c-8.99 9.323-18.88 21.98-26.79 32.488l-1-.543c6.91-10.201 18.89-23.98 27.23-33.134"/><path fill="#653904" fill-opacity=".757" d="m235.93 179.913 1.213.299c-7.721 17.66-9.647 21.568-15.364 39.585l-.748-.356-.601-1.245c1.005-1.913 1.787-4.838 2.53-6.928 3.79-10.667 8.416-20.987 12.97-31.355"/><path fill="#462401" fill-opacity=".38" d="m1119.44 776.164 1.32.649c-7.8 6.097-17.11 12.01-25.76 16.871l.19-1.93c3.19-1.819 23.21-15.331 24.25-15.59"/><path fill="#9c691e" fill-opacity=".918" d="M48.583 511.386c8.841 5.369 18.982 11.436 26.892 18.114l-1.382 1.234c-5.593-4.294-14.028-11.054-20.056-14.293-1.15-1.065-4.567-3.127-6.039-4.071z"/><path fill="#462401" fill-opacity=".694" d="m1210.89 808.463 1.19.335c-8.06 14.006-12.14 19.134-20.88 31.655l-1.29-.245c8.62-11.388 13.49-19.771 20.98-31.745"/><path fill="#653904" fill-opacity=".757" d="M201.166 762.951c.464-4.992-.063-8.613 1.058-13.884l.594 2.287c-.307 4.489-1.257 21.566.356 24.849.093 4.373.084 9.23.304 13.554l-1.613 2.329c.365-9.922-1.138-19.891-.699-29.135"/><path fill="#8b5611" fill-opacity=".298" d="M202.818 751.354c2.261 3.34 2.282 17.479 1.972 21.613-1.499 1.581-1.115.766-1.172 3.262l-.444-.026c-1.613-3.283-.663-20.36-.356-24.849"/><path fill="#462401" fill-opacity=".4" d="m1145.88 878.803 1.17.719c-7.83 5.636-18.13 11.425-26.5 16.274l.1-1.932c8.43-4.915 16.85-10.045 25.23-15.061"/><path fill="#683c04" fill-opacity=".886" d="m248.009 148.165 1.404 1.963 1.146-.204c-2.429 2.79-12.229 25.968-13.416 30.288l-1.213-.299c2.867-10.11 9.233-19.788 12.079-31.748"/><path fill="#9c691e" fill-opacity=".627" d="m1418.17 431.224 1.12.406c-3.53 4.281-9.92 11.508-12.76 15.847-3.89 3.906-7.63 10.077-10.74 13.111l-1.05-.447c3.01-4.142 5.81-7.722 9.01-11.695z"/><path fill="#653904" fill-opacity=".043" d="M317.812 40.484c2.556-2.11 1.761-2.147 4.318-2.1 1.831 1.675 1.308.806 1.733 3.482-1.145 3.231-1.551 4.267-5.314 4.756a60 60 0 0 1-2.425-1.78c1.801-2.102 1.253-1.267 1.688-4.358"/><path fill="#251000" fill-opacity=".431" d="m912.65 862.381.249 1.153c-3.406 1.184-35.564 13.476-36.104 13.452 1.224-2.542 30.655-12.752 35.855-14.605"/><path fill="#683c04" fill-opacity=".784" d="m262.506 107.473.97 1.33c-5.742 10.645-10.433 24.559-14.97 32.642l-1.325 2.93-.639-1.275c5.368-10.839 10.322-23.875 15.964-35.627"/><path fill="#683c04" fill-opacity=".047" d="M1261.52 342.727c-1.72-3.812-6.88-12.895-9.12-17.198l1.02-.71 3.3 3.02c1.35 4.461 4.72 8.896 6.45 13.515z"/><path fill="#653904" fill-opacity=".529" d="M209.291 182.727c4.259-8.122 9.868-20.059 14.313-27.558l1.056.037-.733-.57.97-.931c-1.923 6.325-10.716 23.482-14.635 29.503z"/><path fill="#462401" fill-opacity=".451" d="M448.135 876.005c5.031 8.701 9.211 16.986 13.721 25.937l-.909 1.39c-2.945-4.394-10.854-21.049-14.037-26.983z"/><path fill="#462401" fill-opacity=".349" d="M1059.92 923.973c3.02-3.101 21.88-11.456 26.5-13.309l.56 1.116c-5.45 2.879-21.58 10.948-27.06 12.193"/><path fill="#462401" fill-opacity=".576" d="m232.223 45.476 1.103.473c-7.332 8.494-15.233 18.612-22.15 27.522l-2.62 1.327c6.31-8.19 16.874-22.034 23.667-29.322"/><path fill="#462401" fill-opacity=".698" d="m1188.31 737.698 1.2.531c-6.99 9.772-12.93 18.07-20.72 27.277l-1.34-.304c7.61-9.016 14.03-17.944 20.86-27.504"/><path fill="#683c04" fill-opacity=".369" d="M1435.51 412.487c2.28-4.707 16.83-16.431 21.43-20.45l.62 1.389c-6.5 5.804-15.26 14.457-22.05 19.061"/><path fill="#462401" fill-opacity=".416" d="M246.768 756.281c9.895-.028 25.811-3.253 36.772-3.87l-.046.943c-9.794 1.557-26.7 2.376-35.337 4.223z"/><path fill="#9c691e" fill-opacity=".329" d="M1435.35 437.303c-3.47 3.652-7 7.25-10.58 10.792-2.39 2.509-6.75 7.669-9.61 8.897l-.12-1.328 4.53-4.776c3.07-3.002 8.13-8.468 11.37-10.76z"/><path fill="#251000" fill-opacity=".353" d="m900.786 990.072 1.047.455c-3.885 5.331-17.194 26.873-20.159 29.773 3.877-9.94 12.436-21.98 19.112-30.228"/><path fill="#653904" fill-opacity=".365" d="M1509.06 256.444c2.36-3.538 22.35-13.802 26.94-15.94v1.228c-4.25 2.206-24.53 14.434-26.94 14.712"/><path fill="#683c04" fill-opacity=".816" d="m290.294 68.656.711 1.035c-1.025 4.152-11.517 21.67-14.187 26.416-1.305-4.791 11.073-20.2 13.476-27.45"/><path fill="#462401" fill-opacity=".502" d="m32.295 214.901.72 1.022C26.476 219.395 7.203 227.704 0 229.687v-1.056c7.88-2.297 25.056-10.022 32.295-13.73"/><path fill="#462401" fill-opacity=".565" d="M1066.83 806.399c8.13-3.824 21.08-9.888 28.36-14.645l-.19 1.93c-4.82 2.535-9.93 5.127-14.67 7.763a887 887 0 0 0-12.4 5.85z"/><path fill="#683c04" fill-opacity=".647" d="M148.918 346.465c3.456-5.382 15.042-19.706 19.536-25.676l.508 1.107c-5.944 8.815-12.154 16.54-18.895 24.756z"/><path fill="#683c04" fill-opacity=".369" d="M107.098 413.172c6.279-3.848 12.418-8.426 18.83-11.947l1.702.241c-4.068 3.476-15.503 10.701-20.323 13.447z"/><path fill="#462401" fill-opacity=".196" d="M1183.18 975.117c1.63-3.557 13.91-13.354 17.35-15.699l.52 1.09c-2.92 3.287-14.13 13.18-17.87 14.609"/><path fill="#462401" fill-opacity=".553" d="m200.401 826.26.888 4.039c-1.475 9.41-4.378 23.834-5.289 32.622l-1.324-.301c2.61-13.172 4.15-22.776 5.725-36.36"/><path fill="#683c04" fill-opacity=".318" d="m256.676 130.064 1.06 3.834c-1.561 3.081-3.91 7.321-4.786 10.507l-2.484-2.827c.736-2.462 4.713-9.091 6.21-11.514"/><path fill="#653904" fill-opacity=".373" d="M123.765 299.327c1.063-1.996 16.331-16.426 18.735-18.008-.564 3.598-15.26 17.179-18.735 18.008"/><path fill="#653904" fill-opacity=".216" d="M1482.78 274.922c1.6-1.322 16.18-9.788 18.5-11.079-1.86 5.485-12.88 8.624-17.48 12.358z"/><path fill="#9c691e" fill-opacity=".616" d="m1347.32 391.602 1.57.515a205 205 0 0 0-18.91 24.183l-.65-1.09c2.82-4.601 7.85-10.955 11.16-15.57 2.33-2.201 4.78-5.471 6.83-8.038"/><path fill="#462401" fill-opacity=".569" d="M369.798 833.239c4.344 1.109 19.602 15.051 23.58 18.643l-1.747.307c-4.186-4.541-20.803-16.836-21.833-18.95"/><path fill="#683c04" fill-opacity=".792" d="M1256.72 327.839c1.46 1.07 14.32 23.422 17.14 27.46l-1.1.696c-3.22-5.229-5.95-9.68-9.59-14.641-1.73-4.619-5.1-9.054-6.45-13.515"/><path fill="#683c04" fill-opacity=".361" d="m115.894 341.711 1.204.624c-5.709 4.702-15.839 9.483-18.59 11.921l-.81-1.81a290 290 0 0 0 18.196-10.735"/><path fill="#9c691e" fill-opacity=".569" d="M1358.52 416.488c2-4.668 14.81-20.088 19.11-23.343-2.06 3.632-16.14 21.212-19.11 23.343"/><path fill="#462401" fill-opacity=".451" d="M25.607 418.926c6.212 3.433 19.891 13.956 23.36 15.519l.18 1.626c-1.199-.405-2.148-1.05-3.236-1.697-4.392-3.536-14.867-11.478-19.795-13.484z"/><path fill="#8b5611" fill-opacity=".345" d="M1517 275.773c5.88-3.654 12.94-8.275 19-11.321v1.402l-16.78 10.551z"/><path fill="#462401" fill-opacity=".463" d="M1163.99 943.612c2.54-3.403 15.77-14.043 19.58-16.951l.58 1.049c-4.2 3.672-15.83 14.235-20.16 15.902"/><path fill="#683c04" fill-opacity=".784" d="m254.272 75.489.989.487c-4.566 8.087-9.45 16.443-13.835 24.581l-.936-.582a767 767 0 0 1 13.782-24.486"/><path fill="#c38a2e" fill-opacity=".078" d="m1382.73 454.429 1.96-1.867c3.48.294 7.41.77 7.6 4.983l-1.56 1.907c-1.62-1.631-5.83-3.8-8-5.023"/><path fill="#462401" fill-opacity=".639" d="M1200.53 959.418c6.85-4.895 13.97-14.693 21.15-20.121-2.73 4.61-16.29 18.21-20.63 21.211z"/><path fill="#c38a2e" fill-opacity=".776" d="m1296.48 386.354 1.45.953c1.73 2.21 3.44 4.435 5.14 6.673l-1.46 3.299-4.31-4.917-.9-1.314c-.34-2.311-.37-2.436.08-4.694"/><path fill="#462401" fill-opacity=".482" d="m1013.47 911.019.68 1.183a852 852 0 0 0-21.745 9.869l-.339-1.156c4.076-2.556 16.454-7.727 21.404-9.896"/><path fill="#653904" fill-opacity=".875" d="m310.733 33.975 2.272-1.257-.039.883c-4.104 6.762-8.191 12.775-12.196 19.715l-1.213-.501c3.442-6.181 7.97-12.611 11.176-18.84"/><path fill="#8b5611" fill-opacity=".361" d="m87.593 474.95 1.257-.187c3.142 2.697 9.007 8.185 11.499 11.44l.17 2.191c-2.894-2.861-10.988-10.544-12.926-13.444"/><path fill="#653904" fill-opacity=".671" d="M216.336 229.331c1.635-2.754 3.339-6.866 4.695-9.89l.748.356c-2.493 7.18-7.093 16.647-10.397 23.721l-.814-1.178c2.252-4.446 3.881-8.425 5.768-13.009"/><path fill="#462401" fill-opacity=".275" d="M418.676 768.368c4.462 1.597 12.506 6.575 15.734 9.908-4.052-.898-12.726-6.48-16.202-9.057z"/><path fill="#8b5611" fill-opacity=".62" d="M1430.94 440.128c3.13-4.772 11.97-12.223 16.54-15.846l.35 1.33c-4.2 3.705-8.79 7.52-12.48 11.691z"/><path fill="#9c691e" fill-opacity=".722" d="m1342.34 436.023 1.08.826c-2.75 3.129-4.78 5.764-7.28 9.11l-6.56 9.766-.74-1.133 1.32-2.162c2.05-2.243 9.16-12.625 12.18-16.407"/><path fill="#462401" fill-opacity=".643" d="M243.247 32.21c3.194-4.17 11.881-15.989 15.499-18.727-2.282 5.446-10.684 12.997-13.307 18.304z"/><path fill="#653904" fill-opacity=".624" d="m39.595 311.002.25 1.026c-6.41 2.129-16.112 4.759-21.913 7.068l-.298-1.12c7.326-2.54 14.542-4.722 21.961-6.974"/><path fill="#653904" fill-opacity=".137" d="M216.336 229.331c-1.041.704-.464.553-1.736.432.324-2.147 3.558-9.001 4.6-11.366l1.23-.201.601 1.245c-1.356 3.024-3.06 7.136-4.695 9.89"/><path fill="#462401" fill-opacity=".624" d="m1242.18 965.474 1.06 1.277c-3.83 4.507-11.07 13.389-15.26 16.813 2.23-4.812 10.69-12.241 14.2-18.09"/><path fill="#653904" fill-opacity=".71" d="M1369.87 366.724a517 517 0 0 1 17.63-17.396l.23 1.243c-6.05 5.412-11.32 11.123-16.88 17.01z"/><path fill="#c38a2e" fill-opacity=".741" d="m1374.03 426.592 1 .543-5.37 8.142-5.29 7.045-.81-.965c.84-1.451 2.89-4.065 3.95-5.521 2.05-2.613 4.56-6.442 6.52-9.244"/><path fill="#653904" fill-opacity=".212" d="M1263.17 341.354c3.64 4.961 6.37 9.412 9.59 14.641l-.11.72c-4.3-3.666-5.68-10.37-10.22-12.95l-.91-1.038z"/><path fill="#653904" fill-opacity=".867" d="M335.921 0h2.354c-2.064 2.566-3.532 4.184-4.939 7.18-2.203 2.195-3.873 5.192-5.539 7.852h-.997c2.398-4.75 6.222-10.441 9.121-15.032"/><path fill="#653904" fill-opacity=".29" d="m1479.98 325.137 2.03.493c-3.01 2.43-8.91 7.263-12.33 8.481 2.08-3.495 6.92-6.522 10.3-8.974"/><path fill="#462401" fill-opacity=".329" d="m1107.81 900.588.4 1.388c-3 1.515-9.72 5.132-12.59 6.106l-.54-.974c3.26-2.269 9.05-4.972 12.73-6.52"/><path fill="#653904" fill-opacity=".522" d="M0 323.69c5.583-1.492 11.93-3.946 17.634-5.714l.298 1.12C12.285 321.09 5.856 323.627 0 324.452z"/><path fill="#683c04" fill-opacity=".424" d="m250.466 141.578 2.484 2.827c-.647 2.678-.962 3.14-2.391 5.519l-1.146.204-1.404-1.963c1.527-3.237 2.5-2.427 2.177-5.575z"/><path fill="#462401" fill-opacity=".69" d="M36.076 409.027c-7.404 1.43-11.356 2.082-18.848 2.499 3.13-1.224 15.122-2.931 19.101-3.605z"/><path fill="#462401" fill-opacity=".216" d="m194.676 862.62 1.324.301a81.8 81.8 0 0 1-5.757 16.562c.153-1.483 3.805-14.473 4.433-16.863"/><path fill="#462401" fill-opacity=".627" d="M413.034 831.476c-2.828-3.529-12.008-10.073-12.587-12.322 5.679 4 8.883 6.955 14.012 11.663z"/><path fill="#653904" fill-opacity=".502" d="m163.932 218.022 1.157.492c-2.942 3.624-6.894 8.209-9.566 11.906l-1.395-.081c1.127-2.125 8.004-10.37 9.804-12.317"/><path fill="#462401" fill-opacity=".427" d="M443.671 825.365c-3.064-3.742-7.215-7.319-9.481-11.083 4.536 2.97 6.664 5.606 10.034 9.834z"/><path fill="#653904" fill-opacity=".314" d="M145.176 239.171c2.995-3.209 5.523-6.034 8.952-8.832l1.395.081c-1.662 2.801-7.4 7.802-10.024 10.26z"/><path fill="#683c04" fill-opacity=".816" d="m276.035 82.906.94.473c-1.182 2.429-6.226 12.468-6.811 14.425l-1.467-.927a375 375 0 0 1 7.338-13.971"/><path fill="#683c04" fill-opacity=".42" d="M28.501 501.637c3.028-.274 8.044 2.91 11.016 4.511l-1.22 1.259c-2.481-1.225-8.56-3.789-9.796-5.77"/><path fill="#462401" fill-opacity=".525" d="m469.764 811.316 1.59-.708c2.704 4.376 6.43 7.72 8.846 12.029l-.402 1.077a694 694 0 0 0-10.034-12.398"/><path fill="#653904" fill-opacity=".529" d="M285.857 53.567c2.627-4.532 4.851-8.856 8.388-12.706-2.103 3.643-5.563 10.932-7.585 13.87z"/><path fill="#462401" fill-opacity=".369" d="M4.825 438.161c5.793-.231 17.993-1.795 22.578-.222-5.482.369-11.464.655-16.892 1.164z"/><path fill="#462401" fill-opacity=".224" d="M248.157 757.577c-5.833.75-8.956 1.156-14.903 1.054l.054-.257c4.731-.914 8.707-1.482 13.46-2.093z"/><path fill="#9c691e" fill-opacity=".725" d="M198.336 700.298a623 623 0 0 1 1.993 16.447l-.53 1.538c-1.211-6.251-1.851-10.401-2.445-16.738z"/><path fill="#683c04" fill-opacity=".514" d="M275.015 111.831c.908-2.861 5.9-15.878 8.161-17.196-1.244 4.193-5.413 13.908-8.161 17.196"/><path fill="#653904" fill-opacity=".133" d="M320.425 8.929c.122-.583 1.038-1.958 1.399-2.56l1.633 1.498c-.42 3.678-1.976 3.273-2.703 6.903l-2.244-.774c.679-1.408 1.368-3.55 1.915-5.067"/><path fill="#462401" fill-opacity=".235" d="M414.459 830.817a447 447 0 0 1 7.269 7.435l-.237 1.916c-3.007-2.741-5.691-5.714-8.457-8.692z"/><path fill="#c38a2e" fill-opacity=".875" d="M1404.82 475.012c1.6.383 2.56.84 4 .147-3.48 1.978-5.64 5.153-8.17 8.288l-1.09 1.277-1.24-.477c3.06-3.689 4.15-5.095 6.5-9.235"/><path fill="#462401" fill-opacity=".42" d="M372.555 874.229c-2.447-2.747-7.246-7.55-8.765-10.49 3.446 3.015 7.398 6.353 10.173 9.962z"/><path fill="#9c691e" fill-opacity=".71" d="M1308.19 394.144c4.43 3.051 7.66 7.997 11.58 11.379l-.69 1.206c-2.49-2.429-9.49-9.768-10.89-12.585"/><path fill="#683c04" fill-opacity=".675" d="m268.697 96.877 1.467.927c-1.165 1.757-2.15 3.267-3.205 5.091l-3.483 5.908-.97-1.33c2.124-2.913 4.4-7.35 6.191-10.596"/><path fill="#462401" fill-opacity=".404" d="M0 412.106c3.415-.211 9.506-1.003 12.302.517-3.555.915-8.526.792-12.302.863z"/><path fill="#653904" fill-opacity=".471" d="M1523.34 295.927c4.53-2.64 7.82-4.907 12.66-7.237v1.122c-2.67 1.674-7.95 4.787-10.21 6.639z"/><path fill="#c38a2e" fill-opacity=".859" d="m1388.44 466.417 1.42 1.018c-1.71 1.771-4.89 4.688-5.73 6.737l-1.62 2.117-2.17.764c2.43-3.791 5.27-7.145 8.1-10.636"/><path fill="#462401" fill-opacity=".467" d="M456.014 796c4.464 2.505 7.696 6.468 10.838 10.452l-1.387.268c-2.264-3.201-6.442-6.621-9.451-10.72"/><path fill="#653904" fill-opacity=".584" d="M115.894 341.711a689 689 0 0 0 13.67-10.846l-1.305 2.382-11.161 9.088z"/><path fill="#683c04" fill-opacity=".678" d="M261.079 121.293c1.506-3.99 4.391-11.412 7.138-14.513-1.488 4.836-4.117 10.244-6.222 14.923z"/><path fill="#462401" fill-opacity=".129" d="M267.764 5.022c-2.278 2.896-5.225 6.849-8.841 7.928 1.139-2.795 3.616-4.913 5.917-6.728z"/><path fill="#653904" fill-opacity=".745" d="M311.734 23.775c3.378-5.013 5.093-9.839 8.691-14.846-.547 1.518-1.236 3.66-1.915 5.067-2.32 4.485-2.772 5.753-5.672 10.156z"/><path fill="#462401" fill-opacity=".176" d="M1162.4 989.609c.43-.818 5.03-4.391 6.1-5.244l.22 1.684c-1.79 2.311-5.41 4.926-7.94 6.353z"/><path fill="#653904" fill-opacity=".396" d="M129.564 330.865c1.186-1.965 4.762-4.839 6.575-6.225l1.292.497c-1.594 1.434-7.888 7.5-9.172 8.11z"/><path fill="#462401" fill-opacity=".624" d="m205.302 77.749 1.23.478c-2.537 2.893-6.04 6.648-8.346 9.596l-1.821.68c.799-1.976 7.217-8.858 8.937-10.754"/><path fill="#462401" fill-opacity=".392" d="M0 423.578c5.44 1.868 9.38 3.43 14.644 5.703l-1.136 1.015c-2.474-1.699-10.335-4.53-13.508-5.773z"/><path fill="#462401" fill-opacity=".549" d="M11.133 409.228c5.379 3.416 5.296 4.833 11.67 7.898l-.555.993c-3.632-1.903-6.216-3.559-9.66-5.81z"/><path fill="#653904" fill-opacity=".475" d="m1490.71 317.403.93 1.131c-1.92 1.363-8.31 5.706-9.63 7.096l-2.03-.493c3.67-2.447 7.25-5.027 10.73-7.734"/><path fill="#653904" fill-opacity=".69" d="m145.176 239.171.323 1.509c-3.197 3.2-6.764 6.621-9.838 9.886l-1.723-.103c2.39-1.921 8.782-8.772 11.238-11.292"/><path fill="#462401" fill-opacity=".639" d="m1120.65 893.864-.1 1.932c-4.49 2-8.04 3.872-12.34 6.18l-.4-1.388c5.18-2.273 8.04-3.894 12.84-6.724"/><path fill="#683c04" fill-opacity=".569" d="m311.734 23.775 1.104.377c-1.292 2.129-5.054 8.91-7.034 9.589.26-1.958 4.583-7.935 5.93-9.966"/><path fill="#683c04" fill-opacity=".808" d="m301.947 56.973 1.004.822c-1.954 3.444-5.048 9.525-7.734 12.095 1.842-4.429 4.383-8.717 6.73-12.917"/><path fill="#683c04" fill-opacity=".392" d="M80.118 328.192c3.952-2.023 6.704-3.377 10.311-5.922l.482 1.953c-3.636 1.548-7.03 3.325-10.545 5.118z"/><path fill="#9c691e" fill-opacity=".349" d="M1382.51 476.289c-1.16 1.678-4.43 6.631-5.69 7.763l-2.28.418c2.04-2.258 3.02-3.875 4.65-6.388l1.15-1.029z"/><path fill="#683c04" fill-opacity=".745" d="m299.557 52.815 1.213.501c-2.043 3.289-4.077 6.48-5.88 9.914l-1.219-.416c1.963-3.941 3.46-6.297 5.886-10"/><path fill="#683c04" fill-opacity=".737" d="m146.532 382.149.527 1.242-8.915 9.186-1.248-.568c3.144-2.819 6.676-6.745 9.636-9.86"/><path fill="#c38a2e" fill-opacity=".071" d="M171.345 664.336c.272-1.416.125-.951.804-2.206l3.426 2.359.302 1.116-1.155 2.318-.947.115z"/><path fill="#462401" fill-opacity=".361" d="M34.77 435.86c1.814-1.452 8.567-1.612 11.14-1.486-4.128 1.748-6.187 1.805-10.702 2.041z"/><path fill="#462401" fill-opacity=".718" d="m1119.44 776.164 10.63-8.137.35 1.125c-2.68 2.111-7.27 5.478-9.66 7.661z"/><path fill="#8b5611" fill-opacity=".514" d="M1421.36 428.366c1.34-2.999 5.23-7.642 8.26-9.053-1.21 2.783-5.77 7.218-8.26 9.053"/><path fill="#683c04" fill-opacity=".318" d="M18.01 496.265c3.43.83 4.71 1.315 7.959 2.674l2.532 2.698c-4.293-.82-7.17-2.705-10.492-5.372"/><path fill="#653904" fill-opacity=".51" d="m50.9 306.44.246 1.259c-3.298 1.275-8.056 3.295-11.3 4.329l-.251-1.026z"/><path fill="#8b5611" fill-opacity=".337" d="M1307.92 392.787c-2.68-1.599-7.43-5.474-7.33-8.777l.66.583c2.11 2.252 5.68 5.512 6.67 8.194"/><path fill="#462401" fill-opacity=".671" d="m1243.36 833.233.67.827c-1.27 3.86-2.59 7.703-3.97 11.528l-.83-1.087c.78-2.796 3.04-8.335 4.13-11.268"/><path fill="#653904" fill-opacity=".486" d="m66.618 298.875.274 1.308-9.45 4.699-.396-1.404z"/><path fill="#462401" fill-opacity=".333" d="M198.186 87.823c-1.525 2.4-3.346 3.905-5.414 5.816l-.874.193c-.165-2.328 2.733-3.963 4.467-5.33z"/><path fill="#462401" fill-opacity=".333" d="M1160.48 833.463c1.17-1.324 2.36-2.628 3.58-3.91l1.63.252c-1.1 2.354-3.99 4.467-6.05 6.271z"/><path fill="#462401" fill-opacity=".38" d="M411.299 872.509c2.472 2.53 3.175 3.618 5.126 6.522l-1.416.461c-2.026-2.431-3.28-4.277-5.043-6.885z"/><path fill="#c38a2e" fill-opacity=".075" d="m1344.83 426.693 2.11-.311v1.73l1.68 1.118-.73 2.476-3.88-2.447-.11-.708z"/><path fill="#683c04" fill-opacity=".396" d="M56.19 442.055c2.726 1.903 6.352 5.347 8.321 7.987-2.92-1.365-6.25-4.621-8.954-6.81z"/><path fill="#462401" fill-opacity=".69" d="m239.83 35.865 1.24.308c-2.581 3.68-4.822 6.343-7.744 9.776l-1.103-.473c2.876-3.38 5.02-6.016 7.607-9.611"/><path fill="#653904" fill-opacity=".678" d="M295.217 69.89c-.159 4.087-3.027 7.874-5.33 11.186.375-1.935 3.913-10.286 5.33-11.186"/><path fill="#8b5611" fill-opacity=".482" d="M200.329 716.745c1.155 4.307 1.72 7.89 2.433 12.259l-1.039.234c-.816-3.737-1.344-7.175-1.924-10.955z"/><path fill="#8b5611" fill-opacity=".153" d="M1408.7 412.667c1.02-1.456 2.55-2.615 3.93-3.784l1.47.082c-1.88 2.78-3.77 4.594-6.43 6.647z"/><path fill="#653904" fill-opacity=".306" d="M1463.08 339.231c1.06-2.958 3.58-3.99 6.34-4.893-1.42 2.393-2.97 3.3-5.17 4.927z"/><path fill="#462401" fill-opacity=".631" d="m1064.12 807.606.36 1.457c-4.04 1.318-6.77 2.586-10.66 4.379l-1.16-.795c3.75-1.51 7.74-3.386 11.46-5.041"/><path fill="#462401" fill-opacity=".576" d="M404.519 863.117c2.211 3.675 4.737 6.204 6.78 9.392l-1.333.098c-1.485-2.411-4.979-6.42-6.909-8.763z"/><path fill="#653904" fill-opacity=".608" d="M1412.63 408.883c1.34-2.008 6.1-6.941 7.95-8.952l.67 1.29c-2.35 2.319-5.37 5.056-7.15 7.744z"/><path fill="#462401" fill-opacity=".502" d="M448.631 789.204c2.341 1.334 6.445 4.301 7.383 6.796-2.641-.366-5.977-4.659-7.383-6.796"/><path fill="#653904" fill-opacity=".133" d="M49.88 436.704c3.217 1.571 3.947 2.681 6.31 5.351l-.633 1.177c-2.926-1.86-3.89-3.691-5.676-6.528"/><path fill="#9c691e" fill-opacity=".612" d="M100.349 486.203c1.842 1.907 5.134 5.094 6.416 7.174l-.449 1.112-5.797-6.095z"/><path fill="#462401" fill-opacity=".278" d="M361.455 827.716c3.518 1.059 6.048 2.49 8.343 5.523-3.609-1.36-6.032-2.193-8.343-5.523"/><path fill="#683c04" fill-opacity=".796" d="m261.079 121.293.916.41c-2.184 4.368-4 7.27-4.259 12.195l-1.06-3.834c1.362-2.957 2.912-5.874 4.403-8.771"/><path fill="#462401" fill-opacity=".376" d="M1008.99 999.724c1.67-1.359 5.19-4.573 7.01-4.91-1.48 2.343-2.87 3.377-4.92 5.169z"/><path fill="#462401" fill-opacity=".565" d="M1086.42 910.664c3-1.361 5.57-2.389 8.66-3.556l.54.974-8.64 3.698z"/><path fill="#462401" fill-opacity=".6" d="m992.066 920.915.339 1.156c-3.077 1.476-5.59 2.579-8.392 4.552l-1.246-1.133z"/><path fill="#683c04" fill-opacity=".337" d="m57.046 303.478.396 1.404c-1.95.884-4.347 2.059-6.296 2.817l-.245-1.259c1.553-.957 4.394-2.153 6.145-2.962"/><path fill="#462401" fill-opacity=".361" d="m1178.15 815.966 3.25-1.849c-1.22 1.435-4.44 5.553-6.05 6.007l-.21-.565c.59-2.154.91-1.817 3.01-3.593"/><path fill="#683c04" fill-opacity=".671" d="m133.466 394.862 1.078.747-6.914 5.857-1.702-.241c2.581-2.025 5.054-4.218 7.538-6.363"/><path fill="#653904" fill-opacity=".678" d="M0 487.632c3.03 1.221 6.11 2.411 9.071 3.785l-.313.964-2.003-.592L0 488.557z"/><path fill="#683c04" fill-opacity=".498" d="M64.511 450.042c2.255.508 5.09 3.818 6.385 5.676-2.54-1.111-5.342-3.012-6.385-5.676"/><path fill="#462401" fill-opacity=".678" d="m1153.63 873.392.48 1.007-7.06 5.123-1.17-.719z"/><path fill="#653904" fill-opacity=".427" d="M142.5 281.319c.531-2.741 2.038-3.528 4.198-5.245l1.32.312c-1.776 1.878-3.258 3.749-5.518 4.933"/><path fill="#c38a2e" fill-opacity=".098" d="m169.111 638.58 1.059-3.218 1.198-.052c.713 2.724.895 2.769-1.601 4.616z"/><path fill="#653904" fill-opacity=".647" d="M41.345 507.409c2.134 1.096 5.38 2.615 7.238 3.977l-.585.984-5.964-2.917z"/><path fill="#462401" fill-opacity=".588" d="M26.56 433.93c3.58 1.802 4.104 1.849 8.21 1.93l.438.555c-2.538.694-3.06.834-5.677.834-1.86-1.399-1.78-1.316-2.971-3.319"/><path fill="#462401" fill-opacity=".259" d="M264.84 6.222c1.536-3.056 2.409-3.552 5.017-5.594-.838 4.59-1.262 2.374-2.093 4.394z"/><path fill="#462401" fill-opacity=".667" d="m1184.1 808.441 1.3.57c-.9 1.12-3.36 4.047-4 5.106l-3.25 1.849c1.68-2.33 4.12-5.219 5.95-7.525"/><path fill="#462401" fill-opacity=".2" d="M14.644 429.281c3.86.601 4.582.753 7.972 2.993l-9.108-1.978z"/><path fill="#8b5611" fill-opacity=".082" d="m202.762 729.004.736 1.701c-.844 1.144-2.304 2.66-2.879 3.775l-.421-1.438 1.525-3.804z"/><path fill="#653904" fill-opacity=".588" d="m151.988 269.817 1.144.529-5.114 6.04-1.32-.312z"/><path fill="#8b5611" fill-opacity=".514" d="m1517 275.773 2.22.632c-2.1 1.241-3.73 2.059-5.51 3.748l-1.46-1.231z"/><path fill="#462401" fill-opacity=".188" d="m393.378 851.882 3.631 3.68-.556 1.367c-1.023-.727-3.788-3.687-4.822-4.74z"/><path fill="#462401" fill-opacity=".357" d="M466.852 806.452c1.591 1.401 2.989 2.67 4.502 4.156l-1.59.708-4.299-4.596z"/><path fill="#462401" fill-opacity=".62" d="m1025.08 905.957.34 1.138-7.45 3.142-.53-1.06z"/><path fill="#462401" fill-opacity=".247" d="M211.176 73.471c-.92 1.974-2.909 3.307-4.644 4.756l-1.23-.478c1.256-1.514 1.659-1.758 3.254-2.951z"/><path fill="#462401" fill-opacity=".282" d="M245.439 31.787c-1.277 1.381-2.906 3.29-4.369 4.386l-1.24-.308c.553-1.305 2.287-2.638 3.417-3.656z"/><path fill="#653904" fill-opacity=".635" d="m1266.61 654.466.99-.209c-.61 2.081-2.2 7.067-2.5 9.003l-.63-.063c.12-3.686.87-5.323 2.14-8.731"/><path fill="#653904" fill-opacity=".604" d="M1266.76 662.833c.45-2.287 1.82-6.948 3.73-8.352-.7 2.679-1.67 6.403-3.73 8.352"/><path fill="#683c04" fill-opacity=".608" d="m293.671 62.814 1.219.416c-1.054 1.783-2.75 4.878-3.885 6.462l-.711-1.036z"/><path fill="#9c691e" fill-opacity=".29" d="m1403.97 486.887.9-.144c-.32 2.149-1.88 4.348-3.68 5.541-.01-2.187 1.31-3.258 2.78-5.397"/><path fill="#462401" fill-opacity=".118" d="M0 438.017c1.052.015 3.948-.003 4.825.144l5.686.942c-2.893.204-7.482.058-10.511.052z"/><path fill="#653904" fill-opacity=".588" d="m76.479 460.431 5.978 6.715c-3.71-1.97-4.336-2.999-7.043-6.216z"/><path fill="#653904" fill-opacity=".416" d="M71.202 455.876c2.785 1.677 3.186 2.194 5.276 4.555l-1.064.499c-2.315-2.044-2.611-2.41-4.212-5.054"/><path fill="#9c691e" fill-opacity=".749" d="M1357.07 479.79c2.18-3.267 2.56-3.899 5.6-6.37-1.43 2.32-2.8 4.53-4.33 6.793z"/><path fill="#9c691e" fill-opacity=".443" d="m1344.83 426.693-2.81-3.806.21-.682c2.09 1.59 2.9 2.276 4.71 4.177z"/><path fill="#653904" fill-opacity=".6" d="M9.071 491.417c2.744 1.154 5.215 1.961 7.306 4.102-2.294-.734-5.34-2.157-7.619-3.138z"/><path fill="#462401" fill-opacity=".408" d="M400.702 859.44c1.288 1.298 2.435 2.478 3.817 3.677l-1.462.727-3.632-3.892z"/><path fill="#462401" fill-opacity=".357" d="M1013.47 911.019c1.37-1.008 2.36-1.224 3.97-1.842l.53 1.06c-.78.413-3.13 1.705-3.82 1.965z"/><path fill="#8b5611" fill-opacity=".396" d="m1429.62 419.313.19-.388c1.58-3.219 1.9-3.453 4.74-5.443-1.45 3.363-2.04 3.685-4.93 5.831"/><path fill="#653904" fill-opacity=".62" d="M318.996 21.313c-1.263 1.745-1.792 2.169-3.404 3.635.656-2.62 1.053-2.916 2.981-4.85l.893.719z"/><path fill="#462401" fill-opacity=".306" d="M1246.1 963.123c-1.04 1.449-1.66 2.317-2.86 3.628l-1.06-1.277 2.39-2.402z"/><path fill="#462401" fill-opacity=".208" d="M22.803 417.126c.749.421 2.406 1.205 2.804 1.8l.51 1.964c-1.286-.765-2.65-1.857-3.869-2.771z"/><path fill="#653904" fill-opacity=".498" d="m1465.12 360.392 1.17.649-3 2.859-2.24-.444z"/><path fill="#683c04" fill-opacity=".831" d="m184.782 323.221.714.913-2.473 5.245-1.138-.395z"/><path fill="#683c04" fill-opacity=".506" d="m136.896 392.009 1.248.568-3.6 3.032-1.078-.747c.75-1.115 2.291-2.039 3.43-2.853"/><path fill="#462401" fill-opacity=".412" d="M1189.05 804.965c-1.14 1.307-2.41 2.872-3.65 4.046l-1.3-.57 2.46-2.645z"/><path fill="#462401" fill-opacity=".643" d="M1159.13 946.406c1.72-1.304 2.76-2.365 4.86-2.794-1.22 1.872-1.7 2.093-3.51 3.487z"/><path fill="#683c04" fill-opacity=".071" d="m203.174 776.203.444.026c.202 5.196.289 8.274-.14 13.528-.22-4.324-.211-9.181-.304-13.554"/><path fill="#462401" fill-opacity=".145" d="M932.599 1022.82c-.054-2.32-.341-1.28.851-3.24l2.478-.51c-.836.96-2.472 2.94-3.329 3.75"/><path fill="#462401" fill-opacity=".129" d="M322.515 750.725c2.207-.516 8.472-.816 10.34-.065-3.624.144-6.711.31-10.34.065"/><path fill="#462401" fill-opacity=".224" d="m1183.57 926.661 3.16-3.058 1.07.58c-1.16 1.22-2.3 2.554-3.65 3.527z"/><path fill="#462401" fill-opacity=".404" d="m200.582 823.803 1.174 1.863-.467 4.633-.888-4.039c-.191-1.138-.024-1.247.181-2.457"/><path fill="#462401" fill-opacity=".357" d="M10.54 409.21c-2.207-.492-4.088-.608-5.64-2.126l1.04-.944c1.292.809 3.522 2.106 4.6 3.07"/><path fill="#462401" fill-opacity=".812" d="M201.111 815.209c.403 2.759.754 4.969.851 7.783l-.206 2.674-1.174-1.863c.295-2.58.388-5.935.529-8.594"/><path fill="#9c691e" fill-opacity=".847" d="m1389.07 521.335.9.741-2.47 4.61-1.12-.377z"/><path fill="#462401" fill-opacity=".729" d="m397.009 855.562 3.693 3.878-1.277.512-2.972-3.023z"/><path fill="#683c04" fill-opacity=".455" d="M146.532 382.149c.789-1.41 1.099-1.407 2.431-2.442l1.243.146-3.147 3.538z"/><path fill="#653904" fill-opacity=".761" d="M326.8 15.033h.997c-.998 1.548-2.938 4.755-4.049 6.028.782-2.932 1.354-3.583 3.052-6.028"/><path fill="#9c691e" fill-opacity=".529" d="M1418.17 431.224c1.12-1.575 1.36-2.241 3.19-2.858-.51 1.938-.57 1.836-2.07 3.264z"/><path fill="#683c04" fill-opacity=".318" d="M39.517 506.148c.488.304 1.553.867 1.828 1.261l.689 2.044-3.737-2.046z"/><path fill="#462401" fill-opacity=".227" d="m373.963 873.701 2.041 2.122-.597 1.389c-.668-.525-2.191-2.264-2.852-2.983z"/><path fill="#653904" fill-opacity=".322" d="M169.238 285.119c.611-1.192 1.082-1.354 2.173-2.252l1.359.085-2.132 2.577z"/><path fill="#462401" fill-opacity=".42" d="m1064.12 807.606 2.71-1.207 1.1.898-3.45 1.766z"/><path fill="#c38a2e" fill-opacity=".635" d="m142.087 540.908 1.996 2.819-1.344.471-1.905-3.084z"/><path fill="#462401" fill-opacity=".337" d="m1187.63 771.889-2.03 2.859-1.18-1.35 1.55-1.59z"/><path fill="#653904" fill-opacity=".561" d="m210.568 242.34.814 1.178-1.872 2.734-.993-.498z"/><path fill="#9c691e" fill-opacity=".553" d="m1357.07 479.79 1.27.423-2.17 2.884-.76-1.088z"/></svg>