<svg width="711" height="999" viewBox="0 0 711 999" fill="none" xmlns="http://www.w3.org/2000/svg">
<path d="M101.174 244.657C90.7066 312.466 105.267 379.567 141.235 428.79C168.86 466.593 207.426 491.086 249.848 497.623C294.552 504.554 338.39 494.236 373.414 468.641C383.252 461.474 391.988 453.283 399.623 444.384C382.15 452.102 361.766 454.386 339.571 450.92C247.329 436.587 184.759 344.914 199.949 246.468C207.268 198.978 234.421 155.898 276.371 125.183C329.654 86.1985 401.905 70.2896 474.707 81.5518C533.499 90.6876 613.778 128.491 675.876 201.341C675.876 201.341 496.193 -109.118 234.264 40.9922C149.814 89.5063 110.225 186.219 101.174 244.657Z" fill="#F77E15"/>
<path d="M613.07 477.068C626.135 409.731 614.093 342.079 579.935 291.517C553.727 252.69 516.106 226.779 473.999 218.667C429.609 210.083 385.377 218.667 349.409 243.003C339.499 249.65 330.411 257.449 322.335 266.236C340.122 259.227 360.585 257.731 382.544 261.984C474.156 279.783 533.263 373.818 514.295 471.634C505.166 518.809 476.36 560.786 433.308 589.926C378.608 626.863 305.806 640.015 233.477 625.997C175.078 614.656 96.3732 573.781 37.0298 498.647C37.0298 498.647 204.907 815.642 472.346 675.534C558.527 630.328 601.815 535.111 613.07 477.068Z" fill="url(#paint0_linear_281_80)"/>
<path d="M244.574 615.915C312.339 626.39 379.396 611.82 428.586 575.828C466.364 548.185 490.763 509.594 497.374 467.144C504.3 422.41 493.99 378.543 468.332 343.496C461.17 333.652 452.985 324.91 444.091 317.27C451.804 334.754 454.086 355.152 450.623 377.362C436.378 469.586 344.766 532.276 246.306 516.997C198.847 509.673 155.795 482.502 125.101 440.524C86.1417 387.206 70.2434 314.908 81.4981 242.058C90.6279 183.227 128.406 102.895 201.208 40.7559C201.208 40.7559 -109.046 220.557 40.9652 482.659C89.4473 567.165 186.175 606.858 244.574 615.915Z" fill="#F77E15"/>
<path d="M675.089 244.42C629.913 158.103 534.837 114.865 476.832 103.603C409.54 90.5296 341.932 102.658 291.404 136.76C252.602 162.986 226.708 200.631 218.602 242.766C210.023 287.185 218.602 331.446 242.922 367.438C249.564 377.355 257.358 386.449 266.139 394.53C259.135 376.731 257.639 356.254 261.889 334.281C279.677 242.609 373.65 183.462 471.401 202.443C518.546 211.579 560.495 240.403 589.616 283.483C626.528 338.219 639.672 411.069 625.663 483.446C614.329 541.884 573.481 620.719 498.397 680.102C498.397 680.023 815.184 512.035 675.089 244.42Z" fill="#F77E15"/>
<path d="M154.263 920V943H75.8625V807H99.8625V920H154.263ZM256.03 920V943H177.23V807H254.03V830H201.23V862.6H248.03V885.6H201.23V920H256.03ZM284.456 943V807H325.856C335.99 807 343.99 808.467 349.856 811.4C355.856 814.333 360.123 818.467 362.656 823.8C365.323 829.133 366.656 835.4 366.656 842.6V848.2C366.656 858.733 362.123 866.8 353.056 872.4C359.456 874.933 364.323 878.6 367.656 883.4C370.99 888.2 372.656 893.933 372.656 900.6V906.2C372.656 913.533 371.323 920 368.656 925.6C365.99 931.067 361.59 935.333 355.456 938.4C349.323 941.467 341.123 943 330.856 943H284.456ZM325.856 829H308.456V863H325.856C331.19 863 335.19 861.8 337.856 859.4C340.656 856.867 342.056 853.467 342.056 849.2V842.6C342.056 838.333 340.656 835 337.856 832.6C335.19 830.2 331.19 829 325.856 829ZM330.856 885H308.456V921H330.856C336.456 921 340.723 919.667 343.656 917C346.59 914.333 348.056 910.733 348.056 906.2V899.6C348.056 895.067 346.59 891.533 343.656 889C340.723 886.333 336.456 885 330.856 885ZM425.448 943H401.448V807H425.448V943ZM532.572 890.8H486.972V943H462.972V807H538.572V830H486.972V867.8H532.572V890.8ZM653.348 807L611.748 888.4V943H587.748V888.8L545.748 807H571.348L600.748 865L628.548 807H653.348Z" fill="black"/>
<defs>
<linearGradient id="paint0_linear_281_80" x1="328" y1="102.5" x2="328" y2="911" gradientUnits="userSpaceOnUse">
<stop stop-color="#914A0C"/>
<stop offset="0.317308" stop-color="#F77E15"/>
<stop offset="0.639423" stop-color="#F77E15"/>
<stop offset="1" stop-color="#914A0C"/>
</linearGradient>
</defs>
</svg>
