<svg xmlns="http://www.w3.org/2000/svg" width="1024" height="1024" viewBox="0 0 1024 1024"><defs><linearGradient id="a" x1="665.006" x2="367.784" y1="734.394" y2="187.061" gradientUnits="userSpaceOnUse"><stop offset="0" stop-color="#daa04c"/><stop offset="1" stop-color="#fbd691"/></linearGradient></defs><path fill="url(#a)" d="M321.267 217.549c6.386-6.194 17.037-13.087 24.462-18.003 120.931-80.079 288.309-61.524 389.395 42.368 36.119 37.121 66.098 89.52 77.263 140.568 1.085 4.322 2.027 8.282 2.908 12.647 10.423 47.879 7.159 104.082-6.248 151.045-1.388 4.861-6.06 21.47-8.33 25.786-1.396 4.321-3.987 11.506-5.998 15.642-3.021 8.396-21.786 49.555-28.45 52.834-.758.373-1.013.344-1.803-.01-3.225-1.446-34.727-29.632-37.19-33.064-4.525-3.429-12.525-11.038-16.801-15.141 3.573-7.387 7.683-14.466 11.219-22.035a291.3 291.3 0 0 0 20.003-58.854c.109-1.864 2.137-13.254 2.528-15.901.492-3.329 1.612-16.813 2.165-18.803.98-26.018.579-35.41-2.62-61.258-4.065-15.792-4.977-24.358-10.781-41.102a240.22 240.22 0 0 0-106.523-128.791c-48.962-28.942-111.563-37.195-166.506-23.062A235.9 235.9 0 0 0 316.471 330.99c-34.636 58.644-41.724 128.854-24.795 194.323a273 273 0 0 0 11.101 33.921c2.166 5.305 5.001 10.905 7.002 15.945 2.823 4.815 5.377 10.191 8.077 15.147l.464.612c1.938 2.586 3.759 6.003 5.543 8.769 21.745 33.712 51.953 62.937 87.063 82.479 3.664 2.039 9.918 4.838 13.056 7.065 38.236 17.903 72.941 23.828 114.957 20.278a181 181 0 0 0 18.063-2.453c1.852-.341 9.822-2.009 11.217-2.054a260 260 0 0 1 10.464-2.73c15.591-3.712 29.768-10.445 44.256-16.816.545-.239 1.204.532 1.645.885 14.405 12.918 33.261 31.46 47.768 43.236-21.594 18.722-79.243 39.993-107.449 42.662-15.127 3.826-44.146 4.305-60.243 3.722-6.104.168-14.799-.794-20.932-1.505-35.824-4.15-76.53-16.997-107.739-35.316-8.036-3.507-20.653-12.078-27.935-17.16a322.7 322.7 0 0 1-98.413-107.987c-3.072-5.571-7.633-13.621-9.855-19.428-11.742-22.54-23.542-63.669-26.464-88.768-.499-1.053-1.296-9.264-1.501-10.999-3.996-33.889-2.47-68.897 4.233-102.353 1.395-6.964 3.111-15.89 5.697-22.46 1.624-7.543 6.098-20.473 8.985-27.605 7.558-22.536 29.767-62.397 45.701-80.088 4.981-7.395 23.295-26.508 30.164-32.175l1.307-1.161c2.264-2.607 10.505-9.359 13.359-11.427"/><path fill="#e5b363" d="M568.219 705.022a260 260 0 0 1 10.464-2.73c15.591-3.712 29.768-10.445 44.256-16.816.545-.239 1.204.532 1.645.885 14.405 12.918 33.261 31.46 47.768 43.236-21.594 18.722-79.243 39.993-107.449 42.662l-.817-.476c1.669-.73 4.007-.799 5.821-1.211 31.845-7.234 63.281-17.606 91.504-34.352 1.434-.85 6.514-3.834 7.352-5.157-.161-2.631-3.147-4.59-5.306-6.401-6.518-5.467-11.715-11.627-17.476-17.784l-.783.043c.938.935 1.052.979 1.706 2.108l-.585.125c-7.435-6.952-15.52-14.288-21.928-22.17l-.358-.446c-1.797-.46-.897-.512-2.758.473-3.626 5.83-40.802 16.702-48.726 18.197-1.707.046-1.302.123-2.817.57-8.589 2.532-17.685 3.62-26.479 5.258-2.973.239-5.974.092-8.95.336-33.471 2.745-66.451-2.171-97.628-14.679-4.749-1.905-8.168-4.24-12.645-6.615l-.048-.827c38.236 17.903 72.941 23.828 114.957 20.278a181 181 0 0 0 18.063-2.453c1.852-.341 9.822-2.009 11.217-2.054"/><path fill="#e5b363" d="m375.989 739.16.321-.708c3.519 1.338 7.787 4.646 10.416 5.558 5.985 2.078 11.39 4.726 17.109 7.201a286.5 286.5 0 0 0 78.506 21.63c3.189.385 22.06 1.519 22.65 2.706l-.331.434c-6.104.168-14.799-.794-20.932-1.505-35.824-4.15-76.53-16.997-107.739-35.316"/><path fill="#e5b363" d="M741.697 511.332c.514 2.508-.169 5.754-.663 8.337-4.856 25.39-16.476 49.601-28.525 72.047 2.851 2.686 14.283 12.88 14.767 15.646-4.525-3.429-12.525-11.038-16.801-15.141 3.573-7.387 7.683-14.466 11.219-22.035a291.3 291.3 0 0 0 20.003-58.854"/><path fill="#f5c677" d="M213.322 505.817c3.918 7.629 7.611 31.279 10.189 41.239 2.797 10.804 6.95 21.222 10.825 31.671 1.384 3.733 6.21 12.192 5.45 15.858-11.742-22.54-23.542-63.669-26.464-88.768"/><path fill="#f5c677" d="m743.77 415.37.529-.909c4.705 7.101 4.721 48.439 3.049 58.704-.374 2.298-.204 4.37-.282 6.606l-.594-.531c.09-1.188.262-1.483-.082-2.612.98-26.018.579-35.41-2.62-61.258"/><path fill="#f5c677" d="m306.601 230.137.25.717a763 763 0 0 1-14.882 15.858c-4.313 4.42-9.628 9.151-12.886 14.235-.956 1.491-.984 1.128-2.646 1.365 4.981-7.395 23.295-26.508 30.164-32.175"/><path fill="#f5c677" d="M230.736 342.4c.889 2.4-.604 6.267-1.413 8.662-1.784 5.279-3.547 10.637-5.382 15.904-.336.964-1.279 2.043-1.509 3.064l-.681-.025c1.624-7.543 6.098-20.473 8.985-27.605"/><path fill="#f5c677" d="M307.908 228.976c2.264-2.607 10.505-9.359 13.359-11.427-1.21 4.433-8.625 8.85-12.227 11.6z"/><path fill="#f5c677" d="M309.779 575.179c2.823 4.815 5.377 10.191 8.077 15.147l-.642-.044c-3.881-2.85-6.284-9.964-8.126-14.481z"/><path fill="#e5b363" d="m794.719 587.602-.271-1.062c2.101-6.39 2.095-8.396 5.473-14.511l.796-.069c-1.396 4.321-3.987 11.506-5.998 15.642"/><path fill="#f5c677" d="M812.387 382.482c1.085 4.322 2.027 8.282 2.908 12.647l-.575.757c-1.829-1.679-3.628-11.028-2.333-13.404"/><path fill="#e5b363" d="M521.774 436.901c-4.531-3.767-11.059-9.99-14.624-14.637-4.649-6.059-1.979-12.053 6.061-12.459 5.955 1.894 24.427 15.969 30.689 20.392a4243 4243 0 0 1 49.992 35.418l34.218 24.49c11.04 7.978 23.87 15.787 30.334 28.112 10.028 19.118 8.356 42.241 4.361 62.755 2.328 2.03 4.328 3.708 6.404 6.005 4.408 3.694 17.048 14.89 20.852 18.931 6.995 5.912 14.599 13.186 21.475 19.434l41.853 37.827a4814 4814 0 0 1 74.121 67.349c6.99 6.45 41.847 37.766 43.527 42.196-.322 2.435-1.164 3.923-3.153 5.42-10.986 8.266-73.464 6.767-87.66 4.293-5.59-.974-9.654-3.126-14.17-6.502-7.909-5.913-15.07-13.255-22.309-19.978a3729 3729 0 0 1-37.323-35.027l-31.897-30.221c-4.501-4.289-11.864-10.929-15.883-15.36-7.336-6.082-15.892-14.884-22.755-21.731-7.198-5.804-18.666-17.862-25.598-24.709-24.953 14.473-65.026 16.328-87.396-4.04-5.001-3.119-21.985-20.271-26.877-25.134-7.055-5.701-24.382-23.524-31.335-30.624-15.107-15.425-32.835-31.884-47.391-47.555-4.801-4.051-11.332-13.555-.518-15.996 5.72-1.292 13.768 6.07 18.253 9.769 6.493 4.15 17.7 13.275 24.145 18.197l49.742 38.147c5.158 3.977 12.574 10.662 18.843 12.511 4.705 1.388 9.394-2.212 10.461-7.08l.609-2.174c-.515-1.705-1.194-3.493-2.483-4.777-14.661-14.602-31.594-27.622-45.908-42.57-.329-.188-.911-.903-1.206-1.226-7.015-4.955-16.367-15.754-23.087-21.789-7.5-7.54-15.947-15.051-22.915-22.98-5.102-5.805 2.075-13.594 6.031-12.401 5.671 1.712 21.956 14.305 25.838 18.427 6.101 4.475 25.114 18.821 29.604 23.945 2.407 1.747 8.225 6.217 10.4 8.293 3.015 2.052 29.167 22.852 30.601 24.757 3.451 2.252 8.848 7.838 12.429 7.472 11.376-1.163 11.881-11.828 3.435-17.903-1.366-.982-4.575-4.502-5.625-5.572-2.763-2.246-6.337-5.537-8.672-8.212-2.612-1.741-17.204-16.082-20.779-19.48l-25.847-24.644c-4.222-4.035-10.053-9.223-13.801-13.371-4.09-3.729-13.509-11.082-13.873-16.65-.41-6.276 6.7-9.71 11.758-6.175 8.529 6.327 16.853 13.038 25.134 19.718a6345 6345 0 0 1 52.946 43.318c6.638 5.489 16.11 14.079 23.548 18.251 2.856 1.601 7.747-.566 10.338-2.843 6.19-9.379-1.585-12.624-7.447-18.849-6.717-7.132-17.093-14.322-23.296-21.569l-.534-.637c-6.764-5.434-16.41-14.919-23.022-20.923-5.152-4.678-16.242-14.669-20.618-19.629"/><path fill="#f5c677" d="M489.228 526.347c-7.015-4.955-16.367-15.754-23.087-21.789-7.5-7.54-15.947-15.051-22.915-22.98-5.102-5.805 2.075-13.594 6.031-12.401 5.671 1.712 21.956 14.305 25.838 18.427l-.89.454c-8.215-2.852-18.988-20.047-28.553-15.604-2.279 2.309-1.587 4.953-1.863 8.179 5.438 5.125 44.766 42.396 45.439 45.714"/><path fill="#f5c677" d="m486.84 462.889.485-.878c1.39 1.033 1.607 1.212 2.866 2.666 2.688 3.105 5.904 4.565 8.904 7.573 15.804 15.841 32.616 30.787 47.997 47.034l.175 1.1c-2.612-1.741-17.204-16.082-20.779-19.48l-25.847-24.644c-4.222-4.035-10.053-9.223-13.801-13.371"/><path fill="#f5c677" d="M521.774 436.901c-4.531-3.767-11.059-9.99-14.624-14.637-4.649-6.059-1.979-12.053 6.061-12.459-18.193 6.868 6.595 18.638 8.563 27.096"/><path fill="#f5c677" d="M417.29 521.546c-4.801-4.051-11.332-13.555-.518-15.996 5.72-1.292 13.768 6.07 18.253 9.769-6.944.253-14.151-14.468-21.603-5.648-4.872 5.768 2.779 7.037 3.868 11.875"/><path fill="#f5c677" d="M504.699 511.549c2.407 1.747 8.225 6.217 10.4 8.293-3.319.408-9.884-5.265-10.4-8.293"/></svg>